<svg width="18" height="19" viewBox="0 0 18 19" fill="none" xmlns="http://www.w3.org/2000/svg">
<path fill-rule="evenodd" clip-rule="evenodd" d="M13.8615 15.3425V15.341L13.875 15.3088L16.1242 3.96876V3.93276C16.1242 3.65001 16.0192 3.40326 15.7927 3.25551C15.594 3.12576 15.3652 3.11676 15.2047 3.12876C15.0554 3.14239 14.908 3.17258 14.7652 3.21876C14.7043 3.2382 14.6443 3.26022 14.5852 3.28476L14.5755 3.28851L2.0355 8.20776L2.03175 8.20926C1.99333 8.22148 1.95596 8.23678 1.92 8.25501C1.83086 8.29518 1.7453 8.34285 1.66425 8.39751C1.503 8.50851 1.19625 8.76951 1.248 9.18351C1.29075 9.52701 1.527 9.74451 1.68675 9.85776C1.78083 9.92418 1.88225 9.97955 1.989 10.0228L2.013 10.0333L2.0205 10.0355L2.02575 10.0378L4.22025 10.7765C4.21225 10.9145 4.2265 11.0533 4.263 11.1928L5.36175 15.362C5.42177 15.5893 5.55147 15.792 5.73264 15.9418C5.9138 16.0916 6.13733 16.1808 6.37183 16.1971C6.60632 16.2133 6.84001 16.1556 7.04007 16.0322C7.24013 15.9088 7.39651 15.7258 7.48725 15.509L9.20325 13.6745L12.15 15.9335L12.192 15.9515C12.4597 16.0685 12.7095 16.1053 12.9382 16.0745C13.167 16.043 13.3485 15.947 13.485 15.8383C13.6429 15.7103 13.7688 15.5472 13.8525 15.362L13.8585 15.3493L13.8607 15.3448L13.8615 15.3425ZM5.3505 10.9063C5.33833 10.86 5.34122 10.8111 5.35875 10.7666C5.37629 10.7221 5.40755 10.6843 5.448 10.6588L12.8887 5.93376C12.8887 5.93376 13.3267 5.66751 13.311 5.93376C13.311 5.93376 13.389 5.98026 13.1542 6.19851C12.9322 6.40626 7.851 11.312 7.3365 11.8085C7.30857 11.8368 7.28865 11.872 7.27875 11.9105L6.44925 15.0755L5.3505 10.9063Z" fill="black"/>
</svg>
