<svg width="16" height="16" viewBox="0 0 16 16" fill="none" xmlns="http://www.w3.org/2000/svg">
<path d="M11.868 7.50343C11.868 7.90127 12.183 8.22677 12.568 8.22677H13.968C14.353 8.22677 14.668 7.90127 14.668 7.50343C14.668 7.1056 14.353 6.7801 13.968 6.7801H12.568C12.183 6.7801 11.868 7.1056 11.868 7.50343ZM10.881 10.9899C10.826 11.064 10.786 11.1487 10.7632 11.2391C10.7405 11.3294 10.7355 11.4236 10.7485 11.5159C10.7616 11.6083 10.7924 11.697 10.8392 11.7769C10.886 11.8567 10.9478 11.9261 11.021 11.9809C11.392 12.263 11.784 12.5668 12.155 12.8561C12.463 13.0948 12.897 13.0297 13.121 12.7114C13.121 12.7042 13.128 12.7042 13.128 12.697C13.1827 12.6221 13.2226 12.5368 13.2452 12.446C13.2679 12.3551 13.2728 12.2605 13.2598 12.1676C13.2468 12.0748 13.216 11.9855 13.1694 11.9051C13.1227 11.8246 13.061 11.7544 12.988 11.6988C12.617 11.4094 12.225 11.1056 11.861 10.8235C11.7875 10.7674 11.704 10.7268 11.6153 10.704C11.5265 10.6813 11.4344 10.6768 11.344 10.6909C11.2536 10.7051 11.1668 10.7374 11.0886 10.7863C11.0103 10.8351 10.9421 10.8994 10.888 10.9754C10.888 10.9827 10.881 10.9899 10.881 10.9899ZM13.135 2.30266C13.135 2.29543 13.128 2.29543 13.128 2.2882C13.0741 2.21268 13.0062 2.14897 12.9283 2.10076C12.8505 2.05254 12.7641 2.02079 12.6742 2.00733C12.5844 1.99387 12.4928 1.99898 12.4049 2.02236C12.3169 2.04574 12.2344 2.08693 12.162 2.14353C11.791 2.43286 11.392 2.73666 11.028 3.026C10.72 3.2647 10.664 3.71316 10.895 4.0242C10.895 4.03143 10.902 4.03143 10.902 4.03866C11.133 4.35693 11.56 4.42203 11.868 4.18333C12.239 3.90123 12.631 3.5902 13.002 3.30086C13.303 3.0694 13.359 2.62093 13.135 2.30266ZM4.86797 5.33343H2.06797C1.29797 5.33343 0.667969 5.98443 0.667969 6.7801V8.22677C0.667969 9.02243 1.29797 9.67344 2.06797 9.67344H2.76797V11.8434C2.76797 12.2413 3.08297 12.5668 3.46797 12.5668C3.85297 12.5668 4.16797 12.2413 4.16797 11.8434V9.67344H4.86797L8.36797 11.8434V3.16343L4.86797 5.33343ZM10.118 7.50343C10.118 6.5414 9.71197 5.6734 9.06797 5.08026V9.91937C9.71197 9.33347 10.118 8.46547 10.118 7.50343Z" fill="#8E00C5"/>
</svg>
