<svg width="16" height="16" viewBox="0 0 16 16" fill="none" xmlns="http://www.w3.org/2000/svg">
<path d="M8.84165 1.99989C5.44831 1.90655 2.66831 4.63322 2.66831 7.99989H1.47498C1.17498 7.99989 1.02831 8.35989 1.24165 8.56655L3.10165 10.4332C3.23498 10.5666 3.44165 10.5666 3.57498 10.4332L5.43498 8.56655C5.48105 8.51956 5.51218 8.45997 5.52444 8.39531C5.5367 8.33066 5.52954 8.26381 5.50388 8.20322C5.47821 8.14262 5.43518 8.09097 5.38021 8.05479C5.32524 8.0186 5.26079 7.9995 5.19498 7.99989H4.00165C4.00165 5.39989 6.12165 3.29989 8.73498 3.33322C11.215 3.36655 13.3016 5.45322 13.335 7.93322C13.3683 10.5399 11.2683 12.6666 8.66831 12.6666C7.59498 12.6666 6.60165 12.2999 5.81498 11.6799C5.68729 11.5793 5.52708 11.5291 5.36483 11.539C5.20257 11.5488 5.04959 11.6179 4.93498 11.7332C4.65498 12.0132 4.67498 12.4866 4.98831 12.7266C6.03578 13.5548 7.33298 14.0036 8.66831 13.9999C12.035 13.9999 14.7616 11.2199 14.6683 7.82655C14.5816 4.69989 11.9683 2.08655 8.84165 1.99989ZM8.50165 5.33322C8.22831 5.33322 8.00165 5.55989 8.00165 5.83322V8.28655C8.00165 8.51989 8.12831 8.73989 8.32831 8.85989L10.4083 10.0932C10.6483 10.2332 10.955 10.1532 11.095 9.91989C11.235 9.67989 11.155 9.37322 10.9216 9.23322L9.00165 8.09322V5.82655C9.00165 5.55989 8.77498 5.33322 8.50165 5.33322Z" fill="#FF4D06"/>
</svg>
