<svg width="133" height="186" viewBox="0 0 133 186" fill="none" xmlns="http://www.w3.org/2000/svg">
<path d="M103.233 111.1C105.033 109 106.133 106.1 106.333 105C106.533 103.6 105.733 103.4 104.433 102.7C99.8331 100 96.3331 94.8004 95.8331 88.1004C95.3331 81.4004 95.7331 74.6004 93.6331 68.1004C92.8331 65.8004 87.1331 52.9004 83.4331 56.1004C82.7331 56.7004 87.1331 72.9004 82.1331 78.2004C78.2331 82.4004 72.0331 89.3004 74.0331 94.8004C75.8331 99.8004 81.8331 98.0004 83.2331 103.2C84.3331 107.3 83.5331 109.8 82.7331 112.3C81.7331 115.8 97.2331 117.9 103.233 111.1Z" fill="#161616"/>
<path d="M97.4328 185C91.7328 173.6 86.0328 160.6 84.9328 155.3C84.3328 152.4 84.3328 148.1 85.7328 144.9L75.1328 142.1L84.4328 98.3003C84.4328 98.3003 92.7328 100 97.9328 107.1C107.733 120.6 101.333 137.8 105.233 152.8C108.133 163.8 113.533 174.2 117.733 184.9H97.4328V185Z" fill="#FF4D06"/>
<path d="M86.2328 145.1C86.3328 145 86.3328 144.8 86.2328 144.7C86.1328 144.6 86.0329 144.5 85.9328 144.4L75.8328 141.7L84.9328 98.9004C86.7329 99.4004 93.3328 101.5 97.5328 107.4C103.433 115.5 103.333 124.8 103.333 134.6C103.333 140.7 103.233 147 104.833 153C106.833 160.5 110.033 167.9 113.033 175C114.433 178.3 115.933 181.6 117.233 185H118.333C116.933 181.5 115.433 178 113.933 174.5C110.833 167.4 107.733 160.1 105.733 152.7C104.233 146.9 104.233 140.7 104.233 134.6C104.233 125 104.333 115.1 98.2329 106.8C93.0329 99.6004 84.8328 97.9004 84.4328 97.8004C84.1328 97.7004 83.8328 97.9004 83.8328 98.2004L74.5328 142C74.4328 142.3 74.6329 142.5 74.9329 142.6L84.9328 145.2C83.7329 148.6 83.8328 152.7 84.3328 155.3C85.4328 160.6 91.0328 173.5 96.7328 184.9H97.9328C92.2328 173.5 86.4328 160.4 85.4328 155.1C85.0329 152.6 84.8328 148.3 86.2328 145.1Z" fill="#161616"/>
<path d="M95.7321 185H36.9321C36.9321 184.9 37.0321 184.8 37.0321 184.7C39.3321 178 40.6321 172.4 41.2321 167.2C41.2321 167 41.2321 166.7 41.3321 166.5C41.7321 162.1 41.7321 158.1 41.3321 153.8C40.8321 148.2 39.9321 142.3 39.0321 135.1C38.8321 133.7 38.7321 132.4 38.5321 131.2C38.4321 130.4 38.3321 129.6 38.2321 128.9C36.1321 112.9 34.7321 108.9 35.3321 104.8C36.7321 94.0004 54.8321 93.9004 63.0321 93.6004C73.6321 93.3004 85.2321 95.1004 93.5321 102.2V102.7L93.9321 114.8V115.3C98.2321 128.3 92.9321 141.3 92.3321 146.1C90.9321 157.6 93.0321 174.9 95.5321 184.1C95.5321 184.6 95.6321 184.8 95.7321 185Z" fill="#FF4D06"/>
<path opacity="0.45" d="M82.5319 104.3C81.6319 108.8 76.3319 112.5 67.1319 109.5C66.5319 109.3 66.2319 110.2 66.7319 110.4C77.5319 115.9 88.6319 108.5 82.8319 97.7003C82.5319 97.2003 81.8319 97.5003 81.9319 98.0003C82.4319 100 82.9319 102.3 82.5319 104.3Z" fill="#161616"/>
<g opacity="0.25">
<path d="M90.0322 185H37.0322C39.4322 179 40.7322 173.101 41.2322 167.301C41.2322 167.101 41.2322 166.8 41.3322 166.6C41.6322 162.4 41.6322 158.2 41.3322 153.9C40.8322 146.6 39.7322 139.201 38.6322 131.301C38.5322 130.501 38.4322 129.8 38.3322 129C38.5322 129.1 38.7322 129.101 38.8322 129.201C55.1322 134.801 51.7322 158.9 52.1322 171.9C52.5322 183.8 66.3322 181.9 71.4322 182C77.0322 182.1 82.3322 182.401 87.7322 184.201C88.4322 184.5 89.2322 184.7 90.0322 185Z" fill="#161616"/>
</g>
<path d="M67.2321 158.701C66.6321 158.701 66.7321 158.601 66.7321 158.401C67.4321 155.301 69.9321 145.801 70.7321 142.701C70.9321 142.001 70.7321 141.601 70.1321 141.201C68.7321 140.201 67.3321 139.101 65.9321 138.101C64.9321 137.401 64.9321 137.401 65.6321 136.401C80.2321 114.801 73.7321 124.401 77.9321 118.101C78.0321 117.901 78.1321 117.601 78.4321 117.701C78.7321 117.801 78.5321 118.101 78.5321 118.301C77.6321 121.901 75.6321 129.901 74.6321 133.601C74.4321 134.401 74.6321 134.901 75.3321 135.301C76.7321 136.301 78.1321 137.301 79.5321 138.401C80.3321 139.001 80.3321 139.001 79.8321 139.801C75.5321 146.301 75.2321 146.701 67.7321 157.901C67.4321 158.201 67.3321 158.601 67.2321 158.701Z" fill="#FFCE00"/>
<path d="M93.5324 102.9C93.6324 102.9 93.8324 102.8 93.9324 102.7C94.1324 102.5 94.1324 102.2 93.8324 102C86.6324 95.8004 76.2324 92.8004 63.0324 93.2004H62.0324C53.0324 93.5004 36.1324 94.0004 34.7324 104.8C34.4324 107.4 34.8324 109.9 35.6324 115.4C36.3324 119.8 37.3324 125.8 38.4324 135.2C38.7324 137.7 39.0324 140.1 39.3324 142.3C41.3324 157.1 42.6324 166.9 36.4324 184.5C36.4324 184.6 36.3324 184.8 36.2324 184.9H36.8324C36.8324 185 36.8324 185 36.7324 185.1C36.7324 185 36.8324 185 36.8324 184.9H37.4324V184.8C43.6324 166.9 42.3324 157.1 40.3324 142.1C40.0324 139.8 39.7324 137.5 39.4324 135C39.1324 132.8 38.9324 130.9 38.7324 129.1C37.9324 123 37.2324 118.6 36.7324 115.2C35.8324 109.8 35.5324 107.4 35.8324 104.9C37.1324 94.9004 53.3324 94.5004 62.1324 94.2004H63.1324C76.1324 93.8004 86.2324 96.6004 93.2324 102.7C93.2324 102.9 93.4324 102.9 93.5324 102.9Z" fill="#161616"/>
<path d="M96.0323 184.201C93.5323 174.701 91.5323 157.6 92.9323 146.4C93.0323 145.4 93.4323 143.901 93.8323 142.201C95.3323 136 97.8323 125.7 94.5323 115.4C94.4323 115.2 94.2323 115 94.0323 115C93.9323 115 93.9323 115 93.9323 115C93.6323 115.1 93.5323 115.401 93.6323 115.701C96.9323 125.701 94.4323 135.8 92.9323 141.9C92.5323 143.7 92.1323 145.201 92.0323 146.301C90.7323 157.601 92.6323 174.9 95.2323 184.5C95.2323 184.7 95.3323 184.9 95.3323 185H96.4323C96.1323 184.8 96.1323 184.501 96.0323 184.201Z" fill="#161616"/>
<path d="M56.9323 93.2009C63.3323 107.301 78.3323 106.601 78.1323 101.201C78.1323 100.401 76.9323 93.8009 77.7323 91.0009C80.5323 81.4009 69.1323 77.0009 61.9323 82.9009C59.2323 85.1009 60.7323 87.2009 57.1323 91.4009C56.6323 92.0009 56.6323 92.5009 56.9323 93.2009Z" fill="#F9DF8E"/>
<path opacity="0.35" d="M65.832 85.5007C65.832 85.5007 68.632 96.9008 77.532 95.6008C77.432 93.9008 77.432 92.2007 77.732 91.0007C79.932 83.5007 73.432 79.2007 66.932 80.5007L65.832 85.5007Z" fill="#FF4D06"/>
<path d="M72.6324 105.301C67.7324 105.301 60.5324 102.401 56.4324 93.4006C56.0324 92.5006 56.1324 91.7006 56.7324 91.0006C58.5324 89.0006 58.9324 87.4006 59.3324 86.1006C59.7324 84.8006 60.1324 83.6006 61.5324 82.5006C65.4324 79.3006 71.1324 78.8006 75.0324 81.4006C78.2324 83.5006 79.3324 87.2006 78.1324 91.2006C77.4324 93.4006 78.1324 97.9006 78.4324 100.101C78.5324 100.701 78.5324 101.101 78.5324 101.301C78.6324 103.101 77.2324 104.601 74.8324 105.101C74.3324 105.201 73.5324 105.301 72.6324 105.301ZM57.4324 93.0006C60.0324 98.7006 67.1324 105.901 74.7324 104.001C76.6324 103.601 77.7324 102.501 77.6324 101.201C77.6324 101.101 77.5324 100.601 77.5324 100.101C77.2324 97.9006 76.6324 93.2006 77.3324 90.8006C78.4324 87.2006 77.4324 84.1006 74.6324 82.2006C71.6324 80.2006 66.4324 79.9006 62.3324 83.2006C61.1324 84.2006 60.8324 85.1006 60.5324 86.3006C60.1324 87.7006 59.6324 89.4006 57.6324 91.6006C57.2324 92.1006 57.1324 92.5006 57.4324 93.0006Z" fill="#161616"/>
<path d="M89.1324 78.9005C87.9324 84.6005 84.5324 89.5005 78.8324 89.9005C58.4324 91.5005 46.6324 55.6005 68.4324 50.6005C74.0324 49.3005 79.5324 52.0005 83.2324 56.2005C87.2324 60.7005 88.8324 65.9005 89.5324 71.8005C89.6324 72.3005 89.6324 72.9005 89.6324 73.4005C89.7324 75.2005 89.5324 77.1005 89.1324 78.9005Z" fill="#F9DF8E"/>
<path d="M81.6325 81.6003C82.8325 81.2003 83.9325 80.0003 83.8325 78.7003C83.6325 77.2003 82.1325 78.0003 81.1325 78.3003C80.1325 78.5003 79.1325 78.6003 78.1325 78.7003C75.0325 78.9003 78.4325 82.7003 81.6325 81.6003Z" fill="white"/>
<g opacity="0.35">
<path d="M75.9329 77.1004C75.4329 73.4004 68.5329 73.8004 68.6329 77.7004C68.7329 80.5004 73.1329 81.1004 74.9329 79.4004C75.7329 78.7004 76.0329 77.9004 75.9329 77.1004Z" fill="#FF4D06"/>
<path d="M89.1332 78.9003C87.1332 79.4003 84.5332 78.5003 84.5332 76.4003C84.5332 73.8003 87.5332 72.8003 89.6332 73.5003C89.7332 75.2003 89.5332 77.1003 89.1332 78.9003Z" fill="#FF4D06"/>
</g>
<path d="M90.0326 71.7004C89.3326 64.9004 87.3326 60.0004 83.6326 55.8004C79.3326 51.0004 73.6326 48.8004 68.3326 50.0004C57.8326 52.4004 55.3326 61.5004 56.4326 69.3004C58.0326 79.7004 66.4326 90.4004 77.4326 90.4004C77.9326 90.4004 78.3326 90.4004 78.8326 90.3004C81.7326 90.1004 84.2326 88.7004 86.2326 86.4004C89.2326 83.0004 90.6326 77.3004 90.0326 71.7004ZM85.4326 85.8004C83.6326 87.9004 81.4326 89.1004 78.8326 89.3004C67.7326 90.2004 59.1326 79.5004 57.5326 69.1004C56.4326 61.8004 58.7326 53.3004 68.6326 51.0004C69.5326 50.8004 70.4326 50.7004 71.3326 50.7004C75.4326 50.7004 79.6326 52.7004 82.9326 56.4004C86.5326 60.4004 88.3326 65.1004 89.0326 71.7004C89.6326 77.1004 88.2326 82.5004 85.4326 85.8004Z" fill="#161616"/>
<path d="M81.2328 64.8005C81.4328 66.5005 85.6328 66.5005 86.1328 65.0005C86.8328 62.9005 80.9328 62.2005 81.2328 64.8005Z" fill="#161616"/>
<path d="M75.2322 65.7006C74.6322 63.1006 69.3322 65.7006 70.6322 67.5006C71.6322 68.7006 75.6322 67.4006 75.2322 65.7006Z" fill="#161616"/>
<path d="M79.9325 69.2002C79.7325 69.0002 79.4325 68.9002 79.2325 69.0002C79.0325 69.2002 78.9325 69.5002 79.0325 69.7002C79.0325 69.7002 80.7325 72.4002 81.2325 73.4002C81.3325 73.7002 81.3325 73.8002 81.2325 73.9002C81.1325 74.1002 80.6325 74.6002 79.0325 74.9002C78.7325 75.0002 78.5325 75.2002 78.6325 75.5002C78.7325 75.7002 78.9325 75.9002 79.1325 75.9002H79.2325C80.8325 75.6002 81.8325 75.0002 82.2325 74.3002C82.4325 74.0002 82.5325 73.5002 82.2325 72.9002C81.7325 72.0002 79.9325 69.4002 79.9325 69.2002Z" fill="#161616"/>
<path d="M62.5327 74.8004C62.3327 74.6004 61.9326 74.7004 61.8326 74.9004C61.6326 75.1004 61.7327 75.5004 61.9327 75.6004L63.6327 76.8004C63.7327 76.9004 63.8327 76.9004 63.9327 76.9004C64.1327 76.9004 64.2326 76.8004 64.3326 76.7004C64.5326 76.5004 64.4326 76.1004 64.2326 76.0004L62.5327 74.8004Z" fill="#161616"/>
<path d="M84.5326 68.2004C83.7326 68.3004 83.1326 68.9004 83.2326 69.7004C83.3326 70.5004 83.9326 71.1003 84.7326 71.0003C85.5326 70.9003 86.1326 70.3003 86.0326 69.5003C86.0326 68.7003 85.3326 68.1004 84.5326 68.2004Z" fill="#161616"/>
<path d="M73.933 69.5002C73.133 69.6002 72.533 70.2002 72.633 71.0002C72.733 71.8002 73.333 72.4002 74.133 72.3002C74.933 72.2002 75.533 71.6002 75.433 70.8002C75.433 70.0002 74.733 69.4002 73.933 69.5002Z" fill="#161616"/>
<path d="M42.9322 76.0003C41.3322 75.2003 38.0322 79.8003 36.7322 78.5003C35.9322 77.7003 36.7322 75.9003 37.2322 74.8003C39.8322 68.8003 44.2322 64.8003 41.7322 63.6003C40.7322 63.1003 39.4322 64.3003 38.3322 65.8003C38.8322 64.8003 39.4322 63.9003 39.9322 63.0003C40.6322 61.9003 40.4322 60.9003 39.8322 60.4003C38.7322 59.6003 37.3322 60.8003 35.8322 62.7003C36.2322 62.0003 36.7322 61.1003 36.7322 60.2003C36.7322 59.1003 35.7322 58.8003 34.8322 59.3003C32.9322 60.5003 30.4322 64.5003 29.2322 66.5003C29.2322 66.6003 29.1322 66.6003 29.1322 66.7003C29.6322 65.7003 30.1322 64.6003 30.3322 63.5003C30.4322 62.7003 30.0322 61.6003 29.0322 61.7003C27.3322 61.9003 24.2322 69.5003 23.6322 71.1003C22.1322 75.3003 21.2322 80.1003 22.9322 84.3003C25.4322 90.6003 32.5322 91.6003 39.4322 83.9003C40.4322 82.9003 45.2322 77.2003 42.9322 76.0003Z" fill="#F9DF8E"/>
<path d="M44.0326 76.7003C43.9326 76.2003 43.6326 75.8003 43.1326 75.5003C42.1326 75.0003 40.7326 75.9003 39.5326 76.9003C38.6326 77.5003 37.4326 78.4003 37.1326 78.1003C36.6326 77.6003 37.3326 75.9003 37.7326 75.0003V74.9003C38.6326 72.7003 39.9326 70.7003 40.9326 69.1003C42.3326 66.9003 43.3326 65.3003 42.9326 64.1003C42.8326 63.6003 42.4326 63.3003 41.9326 63.1003C41.4326 62.9003 40.9326 62.9003 40.4326 63.1003C41.2326 61.8003 40.9326 60.5003 40.1326 59.9003C39.7326 59.6003 39.3326 59.5003 38.8326 59.5003C38.3326 59.6003 37.8326 59.8003 37.2326 60.3003C37.2326 60.2003 37.2326 60.2003 37.2326 60.1003C37.2326 59.4003 36.9326 58.9003 36.4326 58.7003C35.9326 58.4003 35.2326 58.5003 34.5326 58.9003C33.5326 59.5003 32.3326 60.9003 30.8326 63.1003C30.8326 62.6003 30.6326 62.1003 30.3326 61.7003C30.0326 61.3003 29.5326 61.2003 29.0326 61.2003C26.6326 61.4003 23.2326 70.8003 23.2326 70.9003C21.3326 76.3003 21.1326 80.8003 22.5326 84.5003C23.7326 87.4003 25.8326 89.3003 28.4326 89.8003C28.8326 89.9003 29.3326 89.9003 29.7326 89.9003C32.9326 89.9003 36.5326 87.9003 39.8326 84.2003C40.4326 83.7003 44.5326 79.1003 44.0326 76.7003ZM39.2326 83.5003C35.7326 87.4003 31.9326 89.3003 28.7326 88.7003C26.4326 88.3003 24.6326 86.6003 23.5326 84.1003C22.1326 80.7003 22.4326 76.4003 24.2326 71.3003C25.3326 68.2003 28.1326 62.4003 29.1326 62.3003H29.2326C29.4326 62.3003 29.5326 62.4003 29.6326 62.5003C29.8326 62.7003 29.9326 63.1003 29.8326 63.5003C29.7326 64.5003 29.2326 65.5003 28.7326 66.6003C28.7326 66.6003 28.7326 66.6003 28.7326 66.7003C27.4326 69.2003 27.2326 71.2003 27.2326 71.2003C27.2326 71.5003 27.4326 71.7003 27.7326 71.8003C27.7326 71.8003 27.7326 71.8003 27.8326 71.8003C28.1326 71.8003 28.3326 71.6003 28.3326 71.3003C28.3326 71.3003 28.5326 69.3003 29.8326 66.9003C32.1326 63.0003 34.0326 60.6003 35.2326 59.8003C35.5326 59.6003 35.8326 59.6003 36.0326 59.7003C36.2326 59.8003 36.2326 60.1003 36.2326 60.3003C36.2326 60.9003 36.0326 61.6003 35.5326 62.4003C35.5326 62.4003 35.5326 62.4003 35.4326 62.5003C35.2326 62.7003 31.0326 68.1003 30.2326 72.8003C30.1326 73.1003 30.3326 73.4003 30.6326 73.4003H30.7326C30.9326 73.4003 31.2326 73.2003 31.2326 73.0003C32.0326 68.8003 35.6326 63.9003 36.2326 63.2003L36.3326 63.1003C37.7326 61.2003 38.6326 60.8003 39.0326 60.7003C39.2326 60.7003 39.4326 60.7003 39.5326 60.8003C39.9326 61.1003 40.0326 61.9003 39.5326 62.7003C39.0326 63.5003 38.5326 64.4003 37.9326 65.5003C37.6326 65.9003 33.5326 71.1003 32.7326 75.8003C32.6326 76.1003 32.8326 76.4003 33.1326 76.4003H33.2326C33.4326 76.4003 33.7326 76.2003 33.7326 76.0003C34.5326 71.5003 38.7326 66.2003 38.7326 66.2003C39.9326 64.6003 40.9326 63.9003 41.5326 64.2003C41.8326 64.3003 41.9326 64.5003 41.9326 64.6003C42.1326 65.3003 41.1326 66.9003 40.0326 68.8003C39.0326 70.4003 37.7326 72.5003 36.8326 74.7003V74.8003C36.3326 76.1003 35.4326 78.0003 36.4326 79.0003C37.4326 80.0003 38.8326 78.9003 40.2326 77.9003C41.1326 77.3003 42.2326 76.4003 42.7326 76.6003C42.9326 76.7003 43.0326 76.8003 43.0326 77.0003C43.3326 78.3003 40.8326 81.7003 39.2326 83.5003Z" fill="#161616"/>
<path d="M43.8328 96.4006C40.7328 96.6006 37.6328 98.1006 34.7328 99.9006C34.4328 100.101 30.2328 102.401 30.2328 102.401C30.2328 102.401 30.6328 101.201 31.1328 99.7006C32.2328 96.4006 33.9328 91.2006 34.1328 90.7006C34.3328 90.1006 34.1328 89.6006 33.6328 89.3006C33.0328 88.9006 28.5328 85.2006 22.8328 83.5006C20.9328 82.9006 20.7328 82.9006 19.6328 84.6006C18.3328 86.5006 16.9328 88.9006 15.4328 91.6006C9.43284 102.501 2.43284 118.401 1.13284 125.301C0.432843 129.001 0.132843 134.501 3.13284 137.301C9.23284 142.801 21.2328 136.301 28.4328 132.601C34.5328 129.501 41.3328 125.201 46.7328 121.001" fill="#FF4D06"/>
<path opacity="0.45" d="M15.5332 91.4005C18.7332 93.1005 25.6332 96.7005 31.2332 99.6005C32.3332 96.3005 34.0332 91.1005 34.2332 90.6005C34.4332 90.0005 34.2332 89.5005 33.7332 89.2005C33.1332 88.8005 28.6332 85.1005 22.9332 83.4005C21.0332 82.8005 20.8332 82.8005 19.7332 84.5005C18.4332 86.3005 17.0332 88.7005 15.5332 91.4005Z" fill="#161616"/>
<path d="M47.2327 120.501C47.0327 120.301 46.7327 120.201 46.5327 120.401C41.1327 124.501 34.3327 128.801 28.3327 131.901L27.3327 132.401C20.1327 136.101 9.13273 141.701 3.63273 136.701C0.632726 134.001 1.13273 128.301 1.73273 125.201C3.43273 116.101 14.2327 93.5006 20.1327 84.7006C21.0327 83.3006 21.0327 83.3006 22.7327 83.8006C27.2327 85.2006 30.2327 87.3006 33.4327 89.6006C34.1327 90.1006 34.1327 89.5006 29.9327 102.201C29.9327 102.301 22.2327 121.501 20.2327 125.501C20.1327 125.801 20.2327 126.101 20.4327 126.201C20.5327 126.201 20.5327 126.301 20.6327 126.301C20.8327 126.301 21.0327 126.201 21.1327 126.001C22.2327 123.801 27.8327 110.301 30.7327 102.801C35.9327 99.9006 39.8327 97.3005 43.9327 97.0005C44.6327 96.9005 44.5327 95.9005 43.8327 96.0005C39.4327 96.3005 35.5327 99.0006 31.3327 101.301C32.0327 99.5006 32.0327 99.5006 31.9327 99.3006C35.1327 89.7006 35.4327 90.0006 33.7327 88.7006C30.1327 86.0006 26.5327 84.0005 23.0327 83.0005C20.9327 82.4005 20.5327 82.4006 19.2327 84.3006C12.3327 94.6006 2.23273 117.101 0.632727 125.201C0.0327265 128.501 -0.567273 134.601 2.83273 137.701C4.63273 139.301 6.83273 140.001 9.33273 140.001C15.2327 140.001 22.4327 136.301 27.7327 133.601L28.7327 133.101C34.8327 130.001 41.7327 125.601 47.1327 121.501C47.3327 121.001 47.4327 120.701 47.2327 120.501Z" fill="#161616"/>
<path d="M79.2326 43.0003C69.1326 38.3003 55.9326 43.5003 50.5326 53.0003C44.6326 63.4003 50.0326 76.0003 45.2326 86.7003C44.6326 88.0003 43.9326 89.2003 43.1326 90.4003C39.3326 95.5003 35.8326 101.9 36.0326 108.2C36.0326 108.9 36.3326 109.5 36.9326 110.1C39.2326 112.3 41.9326 113.9 45.1326 114.7C47.1326 115.2 46.9326 115.1 48.6326 111.8C48.6326 111.7 48.7326 111.7 48.8326 111.6C49.5326 112.3 50.0326 115.3 53.0326 116C60.5326 117.7 68.3326 116 70.8326 114.1C71.2326 113.8 70.9326 113.4 70.4326 113C67.0326 110 64.1326 105.3 64.3326 100.7C64.9326 89.4003 66.4326 89.7003 66.4326 85.9003C66.4326 83.1003 65.0326 80.4003 62.4326 79.1003C61.2326 78.5003 60.1326 78.0003 59.8326 76.6003C59.4326 74.8003 60.2326 72.9003 61.9326 72.1003C64.5326 70.8003 66.9326 71.2003 67.8326 65.4003C68.1326 63.7003 68.1326 63.9003 69.7326 63.6003C76.4326 62.6003 75.9326 64.0003 76.8326 59.7003C76.8326 59.5003 77.1326 59.5003 77.2326 59.6003C79.4326 62.2003 77.4326 62.0003 87.0326 61.4003C89.1326 61.3003 90.4326 60.6003 90.5326 58.6003C90.7326 54.2003 86.7326 46.5003 79.2326 43.0003Z" fill="#161616"/>
<path d="M68.1326 46.7002C58.8326 48.1002 51.5326 56.0002 53.4326 66.8002C53.4326 67.0002 53.7326 67.2002 53.9326 67.2002C54.8326 67.0002 53.7326 65.3002 55.0326 60.3002C56.1326 56.2002 58.5326 52.9002 62.4326 50.3002C67.1326 47.3002 68.8326 47.9002 68.6326 47.0002C68.5326 46.8002 68.3326 46.7002 68.1326 46.7002Z" fill="#FFB0AA"/>
<path d="M42.9326 31.5H7.43262C5.53262 31.5 3.93262 33 3.93262 35V43.9C3.93262 45.8 5.43262 47.4 7.43262 47.4H26.8326C28.3326 51.4 31.6326 56.1 38.3326 56.9C38.3326 56.9 34.1326 53 35.6326 47.4H42.9326C44.8326 47.4 46.4326 45.9 46.4326 43.9V35C46.4326 33.1 44.8326 31.5 42.9326 31.5Z" fill="white"/>
<path d="M42.9326 31H7.43262C5.23262 31 3.43262 32.8 3.43262 35V43.9C3.43262 46.1 5.23262 47.9 7.43262 47.9H26.5326C28.1326 51.8 31.4326 56.5 38.3326 57.4C38.3326 57.4 38.3326 57.4 38.4326 57.4C38.6326 57.4 38.8326 57.3 38.9326 57.1C39.0326 56.9 38.9326 56.7 38.8326 56.5C38.8326 56.5 35.0326 52.9 36.1326 47.9H43.0326C45.2326 47.9 47.0326 46.1 47.0326 43.9V35C46.9326 32.8 45.1326 31 42.9326 31ZM45.8326 43.9C45.8326 45.5 44.5326 46.8 42.9326 46.8H35.6326C35.4326 46.8 35.2326 47 35.1326 47.2C34.0326 51.2 35.8326 54.4 37.0326 56C31.4326 54.8 28.6326 50.6 27.3326 47.1C27.2326 46.9 27.0326 46.8 26.8326 46.8H7.43262C5.83262 46.8 4.53262 45.5 4.53262 43.9V35C4.53262 33.4 5.83262 32.1 7.43262 32.1H42.9326C44.5326 32.1 45.8326 33.4 45.8326 35V43.9Z" fill="#161616"/>
<path d="M15.7326 37.1001C14.4326 37.1001 13.4326 38.1001 13.4326 39.4001C13.4326 40.7001 14.4326 41.7001 15.7326 41.7001C17.0326 41.7001 18.0326 40.7001 18.0326 39.4001C18.1326 38.2001 17.0326 37.1001 15.7326 37.1001Z" fill="#161616"/>
<path d="M25.133 37.1001C23.833 37.1001 22.833 38.1001 22.833 39.4001C22.833 40.7001 23.833 41.7001 25.133 41.7001C26.433 41.7001 27.433 40.7001 27.433 39.4001C27.533 38.2001 26.433 37.1001 25.133 37.1001Z" fill="#161616"/>
<path d="M34.5324 37.1001C33.2324 37.1001 32.2324 38.1001 32.2324 39.4001C32.2324 40.7001 33.2324 41.7001 34.5324 41.7001C35.8324 41.7001 36.8324 40.7001 36.8324 39.4001C36.8324 38.2001 35.8324 37.1001 34.5324 37.1001Z" fill="#161616"/>
<path d="M103.432 0.5H80.3324C77.5324 0.5 75.2324 2.80001 75.2324 5.60001V28.5C75.2324 31.3 77.5324 33.6 80.3324 33.6H94.1324C95.4324 36.1 96.3324 39.9 93.3324 44.1C93.3324 44.1 102.332 42.5 101.232 33.6H103.432C106.232 33.6 108.532 31.3 108.532 28.5V5.60001C108.532 2.80001 106.232 0.5 103.432 0.5Z" fill="white"/>
<path d="M102.233 22.2998C98.4326 25.8998 90.6326 26.6998 87.1326 23.5998C84.1326 20.9998 84.3326 17.6998 86.0326 16.0998C86.3326 15.7998 86.6326 15.4998 86.9326 15.0998C90.1326 10.6998 86.7326 7.19978 89.1326 5.19978C91.6326 3.09978 93.6326 7.69978 94.3326 10.8998C95.0326 10.5998 97.1326 8.99978 99.4326 9.59978C104.233 10.8998 106.233 18.4998 102.233 22.2998Z" fill="#FFEEBA"/>
<path d="M91.132 23.7001C91.132 23.8001 91.132 24.0001 91.132 24.1001C91.132 24.5001 91.032 24.9001 90.932 25.2001C90.532 26.7001 89.432 27.7001 87.832 28.3001C87.132 28.5001 86.532 28.7001 85.932 28.7001C83.532 28.7001 81.632 26.9001 80.232 23.3001C79.132 20.1001 79.232 17.7001 80.432 16.1001C81.032 15.4001 81.732 14.8001 82.832 14.4001C83.432 14.2001 84.132 14.1001 84.732 14.1001C86.032 14.1001 87.132 14.6001 88.232 15.6001C88.332 15.7001 88.332 15.7001 88.432 15.8001C90.132 17.8001 91.232 21.4001 91.132 23.7001Z" fill="#FFB0AA"/>
<g opacity="0.35">
<path d="M102.233 22.3001C100.133 24.3001 96.7326 25.5001 93.3326 25.5001C92.4326 25.5001 91.6326 25.4001 90.9326 25.3001C91.0326 24.9001 91.1326 24.6001 91.1326 24.2001C91.1326 24.1001 91.1326 23.9001 91.1326 23.8001C91.2326 21.5001 90.1326 17.9001 88.1326 15.9001C88.0326 15.8001 88.0326 15.8001 87.9326 15.7001C89.1326 16.3001 90.0326 17.3001 91.0326 17.9001C95.2326 20.4001 101.133 19.5001 104.133 15.6001C104.733 18.1001 104.033 20.6001 102.233 22.3001Z" fill="#FF4D06"/>
<path d="M91.6322 7.3999C92.4322 8.4999 92.5322 9.9999 92.2322 10.8999C92.1322 11.1999 91.7322 11.1999 91.6322 10.8999C91.5322 10.5999 91.4322 10.0999 91.3322 9.7999C90.9322 8.4999 90.3322 6.7999 90.3322 6.7999C90.2322 6.6999 90.3322 6.4999 90.5322 6.3999C90.8322 6.3999 91.4322 7.0999 91.6322 7.3999Z" fill="#FF4D06"/>
</g>
<g opacity="0.25">
<path d="M90.5329 24.0999C90.3329 25.6999 89.5329 27.0999 87.5329 27.8999C83.7329 29.2999 81.7329 26.0999 80.5329 23.0999C79.6329 20.5999 79.4329 18.0999 80.6329 16.3999C80.7329 16.4999 80.9329 16.5999 81.0329 16.6999C82.3329 17.8999 82.9329 19.6999 83.7329 21.2999C84.5329 22.8999 85.9329 24.4999 87.8329 24.5999C88.8329 24.5999 89.7329 24.2999 90.5329 24.0999Z" fill="#161616"/>
</g>
<path d="M103.433 0H80.3328C77.2328 0 74.6328 2.50001 74.6328 5.70001V28.6C74.6328 31.7 77.1328 34.3 80.3328 34.3H93.7328C94.8328 36.6 95.5328 40.1 92.8328 44C92.7328 44.2 92.7328 44.4 92.8328 44.6C92.9328 44.8 93.1328 44.8 93.2328 44.8H93.3328C93.4328 44.8 102.333 43 101.733 34.3H103.333C106.433 34.3 109.033 31.8 109.033 28.6V5.70001C109.033 2.60001 106.533 0 103.433 0ZM108.033 28.6C108.033 31.1 105.933 33.2 103.433 33.2H101.233C101.133 33.2 100.933 33.3 100.833 33.4C100.733 33.5 100.733 33.7 100.733 33.8C101.433 40.2 96.8328 42.6 94.4328 43.4C96.6328 39.5 95.7328 35.9 94.5328 33.5C94.4328 33.3 94.2328 33.2 94.0328 33.2H80.3328C77.8328 33.2 75.7328 31.1 75.7328 28.6V5.70001C75.7328 3.20001 77.8328 1.10001 80.3328 1.10001H103.433C105.933 1.10001 108.033 3.20001 108.033 5.70001V28.6Z" fill="#161616"/>
<path d="M98.2326 9.00009C97.1326 9.00009 95.9326 9.4001 94.6326 10.1001C94.6326 10.1001 94.6326 10.1001 94.5326 10.1001C94.3326 9.4001 94.2326 8.70009 93.9326 8.00009C93.2326 6.20009 92.0326 4.1001 90.2326 4.1001C89.7326 4.1001 89.1326 4.3001 88.7326 4.7001C87.5326 5.7001 87.6326 7.5001 87.6326 8.2001C87.6326 8.6001 87.7326 8.90009 87.7326 9.30009C87.8326 10.4001 88.0326 11.3001 87.3326 13.0001C87.2326 13.4001 87.0326 13.7001 86.8326 14.0001C86.0326 13.6001 85.2326 13.4001 84.4326 13.4001C83.7326 13.4001 83.1326 13.5001 82.4326 13.8001C81.3326 14.2001 80.4326 14.8001 79.8326 15.6001C78.5326 17.3001 78.4326 19.9001 79.5326 23.2001C81.0326 27.0001 83.1326 29.0001 85.7326 29.0001C86.4326 29.0001 87.1326 28.9001 87.8326 28.6001C89.4326 28.0001 90.5326 27.0001 91.1326 25.6001C91.8326 25.7001 92.5326 25.8001 93.2326 25.8001C96.8326 25.8001 100.333 24.5001 102.533 22.4001C104.433 20.6001 105.233 17.9001 104.633 15.1001C103.933 11.3001 100.933 9.00009 98.2326 9.00009ZM90.5326 24.1001C90.5326 24.3001 90.5326 24.5001 90.4326 24.6001C90.3326 24.9001 90.2326 25.3001 90.1326 25.6001C89.7326 26.5001 88.9326 27.3001 87.5326 27.8001C86.9326 28.0001 86.3326 28.1001 85.8326 28.1001C83.1326 28.1001 81.5326 25.5001 80.5326 23.0001C79.6326 20.5001 79.4326 18.0001 80.6326 16.3001C81.1326 15.7001 81.8326 15.2001 82.7326 14.8001C83.3326 14.6001 83.8326 14.5001 84.4326 14.5001C85.1326 14.5001 85.7326 14.7001 86.2326 14.9001C86.5326 15.1001 86.8326 15.2001 87.1326 15.5001C89.4326 17.4001 90.5326 21.3001 90.5326 23.5001C90.6326 23.8001 90.5326 23.9001 90.5326 24.1001ZM101.933 21.9001C99.7326 23.9001 96.4326 25.0001 93.3326 25.0001C92.7326 25.0001 92.1326 25.0001 91.5326 24.9001C91.5326 24.7001 91.6326 24.5001 91.6326 24.3001C91.6326 24.1001 91.6326 24.0001 91.6326 23.8001C91.7326 21.4001 90.5326 17.6001 88.5326 15.5001C88.3326 15.3001 88.0326 15.0001 87.8326 14.9001C88.0326 14.5001 88.2326 14.1001 88.4326 13.7001C89.3326 11.2001 88.8326 10.1001 88.7326 8.50009C88.6326 7.60009 88.6326 6.50009 89.4326 5.80009C89.7326 5.60009 90.0326 5.4001 90.3326 5.4001C91.6326 5.4001 92.6326 7.7001 93.0326 8.6001C93.3326 9.4001 93.5326 10.1001 93.7326 10.9001C92.6326 11.6001 91.7326 12.4001 90.9326 13.2001C90.4326 13.7001 91.1326 14.4001 91.6326 13.9001C93.6326 12.0001 96.6326 9.5001 99.2326 10.2001C103.633 11.3001 105.633 18.3001 101.933 21.9001Z" fill="#161616"/>
<path d="M126.533 143.1H103.433C100.633 143.1 98.333 140.8 98.333 138V115.1C98.333 112.3 100.633 110 103.433 110H110.233C111.533 107.5 112.433 103.7 109.433 99.5C109.433 99.5 118.433 101.1 117.333 110H126.433C129.233 110 131.533 112.3 131.533 115.1V138C131.633 140.8 129.333 143.1 126.533 143.1Z" fill="white"/>
<path d="M124.433 119.4C123.933 124 119.133 127.7 115.433 129.1C115.133 129.2 114.833 129.2 114.533 129.1C112.533 128.4 110.233 126.9 108.433 125C106.933 123.4 105.833 121.5 105.533 119.4C105.133 116.1 107.133 113.4 109.633 113.9C113.033 114.6 115.033 118.8 115.033 118.8C115.033 118.8 117.033 114.6 120.433 113.9C120.833 113.8 121.133 113.8 121.533 113.9C123.333 114.2 124.733 116.6 124.433 119.4Z" fill="#FF4D06"/>
<path opacity="0.25" d="M124.433 119.4C123.933 124 119.133 127.7 115.433 129.1C115.133 129.2 114.833 129.2 114.533 129.1C112.533 128.4 110.233 126.9 108.433 125C109.233 123.3 111.233 122.1 114.033 122.1C118.933 122.1 120.733 116.7 121.333 113.9C123.333 114.2 124.733 116.6 124.433 119.4Z" fill="#161616"/>
<path d="M126.533 109.4H118.033C118.633 100.7 109.733 98.8999 109.633 98.8999C109.433 98.8999 109.233 98.9999 109.133 99.0999C109.033 99.2999 109.033 99.4999 109.133 99.6999C111.833 103.5 111.133 107 110.033 109.4H103.533C100.433 109.4 97.833 111.9 97.833 115.1V138C97.833 141.1 100.333 143.7 103.533 143.7H126.633C129.733 143.7 132.333 141.2 132.333 138V115.1C132.133 112 129.633 109.4 126.533 109.4ZM131.133 138C131.133 140.5 129.033 142.6 126.533 142.6H103.433C100.933 142.6 98.833 140.5 98.833 138V115.1C98.833 112.6 100.933 110.5 103.433 110.5H110.233C110.433 110.5 110.633 110.4 110.733 110.2C111.933 107.8 112.833 104.3 110.633 100.4C111.433 100.7 112.533 101.1 113.533 101.9C116.133 103.8 117.333 106.5 116.933 110C116.933 110.1 116.933 110.3 117.033 110.4C117.133 110.5 117.233 110.6 117.433 110.6H126.533C129.033 110.6 131.133 112.7 131.133 115.2V138Z" fill="#161616"/>
<path d="M121.533 113.4C121.133 113.3 120.733 113.3 120.233 113.4C117.533 113.9 115.733 116.4 114.933 117.7C114.133 116.4 112.333 113.9 109.633 113.4C108.533 113.2 107.433 113.5 106.533 114.3C105.333 115.4 104.633 117.4 104.933 119.5C105.133 121.5 106.233 123.6 107.933 125.4C109.633 127.2 111.933 128.8 114.233 129.6C114.433 129.7 114.633 129.7 114.933 129.7C115.133 129.7 115.333 129.7 115.533 129.6C118.933 128.3 124.233 124.6 124.833 119.5C125.233 116.4 123.733 113.7 121.533 113.4ZM123.833 119.3C123.333 123.4 119.033 127.1 115.233 128.6C115.033 128.7 114.833 128.7 114.633 128.6C112.533 127.8 110.333 126.4 108.733 124.7C107.133 123 106.233 121.2 105.933 119.4C105.733 117.7 106.233 116.1 107.233 115.1C107.633 114.8 108.133 114.4 108.933 114.4C109.133 114.4 109.233 114.4 109.433 114.5C112.533 115.1 114.433 119.1 114.433 119.1C114.533 119.3 114.733 119.4 114.933 119.4C115.133 119.4 115.333 119.3 115.433 119.1C115.433 119.1 117.333 115.1 120.433 114.5C120.733 114.4 121.033 114.4 121.333 114.5C123.033 114.7 124.133 116.9 123.833 119.3Z" fill="#161616"/>
<path d="M107.933 134.2C107.633 134.1 107.233 134.2 106.933 134.2C106.933 134.1 106.933 134 106.833 133.9C107.033 133.9 109.233 133.9 109.533 133.8C109.533 133.8 109.633 132.4 109.533 132.4C109.233 132.4 105.533 132.5 105.333 132.5C105.333 133.7 105.333 134.6 105.333 135.9C105.933 135.9 106.733 135.8 107.433 135.9C108.233 136.1 108.233 137.6 107.333 137.8C107.033 137.9 106.733 137.7 106.733 137.2H105.333C105.333 137.4 105.233 137.6 105.233 137.8C105.233 140 109.033 139.8 109.433 138C109.733 136.3 109.533 134.5 107.933 134.2Z" fill="#161616"/>
<path d="M112.333 132.2C111.633 132.2 111.233 132.5 110.833 133L110.733 133.1C110.133 134 110.233 135.1 110.233 136.1C110.233 137.3 110.333 138.5 111.633 139C111.833 139.1 112.033 139.1 112.333 139.1C114.133 139.2 114.833 137 114.733 135.5C114.733 135.1 114.733 134.7 114.633 134.3C114.433 133.3 113.733 132.2 112.333 132.2ZM113.133 136.1C113.133 136.4 113.133 136.7 113.033 137C112.933 137.2 112.933 137.4 112.633 137.5C112.533 137.5 112.433 137.5 112.233 137.5C111.933 137.5 111.933 137.1 111.833 136.9C111.633 136.2 111.633 135.6 111.733 134.8C111.733 134.5 111.833 134.2 111.833 134.1C111.933 134 112.033 133.9 112.133 133.8C112.433 133.7 112.633 133.8 112.733 134C113.133 134.4 113.133 135.4 113.133 136.1Z" fill="#161616"/>
<path d="M117.433 132.2C116.733 132.2 116.333 132.5 115.933 133L115.833 133.1C115.233 134 115.333 135.1 115.333 136.1C115.333 137.3 115.433 138.5 116.733 139C116.933 139.1 117.133 139.1 117.433 139.1C119.233 139.2 119.933 137 119.833 135.5C119.833 135.1 119.833 134.7 119.733 134.3C119.533 133.3 118.733 132.2 117.433 132.2ZM118.133 136.1C118.133 136.4 118.133 136.7 118.033 137C117.933 137.2 117.933 137.4 117.633 137.5C117.533 137.5 117.433 137.5 117.233 137.5C116.933 137.5 116.933 137.1 116.833 136.9C116.633 136.2 116.633 135.6 116.733 134.8C116.733 134.5 116.833 134.2 116.833 134.1C116.933 134 117.033 133.9 117.133 133.8C117.433 133.7 117.633 133.8 117.733 134C118.233 134.4 118.133 135.4 118.133 136.1Z" fill="#161616"/>
<path d="M124.533 132.4C124.133 132.3 123.633 132.4 123.233 132.4C122.733 133.2 122.433 134 121.833 134.7V134.8C121.833 134.1 121.833 133.2 121.833 132.5C121.433 132.5 120.933 132.5 120.533 132.5C120.533 134.8 120.433 137.1 120.533 139.3C120.833 139.4 121.633 139.4 121.933 139.3C121.933 138.6 121.833 137.5 121.933 136.8C122.333 137.5 122.733 138.7 123.333 139.4C123.733 139.4 124.233 139.5 124.733 139.4L123.033 135.9C123.333 134.6 124.233 133.5 124.533 132.4Z" fill="#161616"/>
</svg>
