<svg viewBox="0 0 191 180" fill="none" xmlns="http://www.w3.org/2000/svg">
<path d="M41.8961 146.621C44.0961 139.021 53.3961 132.221 64.0961 134.821C69.2961 131.621 76.6961 130.521 85.9961 134.021C86.6961 134.321 106.496 159.621 120.496 177.621C120.496 177.621 120.496 177.621 120.396 177.621L120.196 177.721C118.996 178.321 117.696 178.721 116.296 178.721H84.3961H72.1961H45.2961C44.2961 175.421 43.3961 172.121 42.5961 168.821C40.9961 161.721 39.7961 153.721 41.8961 146.621Z" fill="#FFB0AA"/>
<path opacity="0.25" d="M80.6963 157.32L83.6963 174.62L84.3963 178.62H95.3963C89.9963 165.92 80.6963 157.32 80.6963 157.32Z" fill="#161616"/>
<path d="M120.796 177.22C87.0961 133.82 86.4961 133.62 86.0961 133.52C75.4961 129.52 68.1961 131.62 63.8961 134.22C53.1961 131.72 43.5961 138.52 41.2961 146.42C39.1961 153.82 40.4961 161.92 41.9961 168.82C42.6961 172.02 43.5961 175.42 44.6961 178.72C44.7961 178.92 44.9961 179.12 45.1961 179.12H116.096C117.496 179.12 118.996 178.72 120.196 178.12L120.396 178.02C120.496 178.02 120.496 177.92 120.496 177.92C120.596 177.82 120.696 177.72 120.696 177.62C120.896 177.52 120.896 177.32 120.796 177.22ZM116.196 178.12H84.7961L81.3961 157.42C81.3961 157.12 81.0961 156.92 80.7961 157.02C80.4961 157.02 80.2961 157.32 80.3961 157.62L83.7961 178.12H45.6961C44.6961 174.92 43.7961 171.72 43.0961 168.62C41.5961 161.82 40.2961 153.82 42.2961 146.72C44.4961 139.22 53.5961 132.82 63.7961 135.22C63.8961 135.22 64.0961 135.22 64.1961 135.12C68.1961 132.62 75.1961 130.52 85.5961 134.42C86.6961 135.42 98.0961 149.82 119.496 177.32C118.496 177.92 117.396 178.12 116.196 178.12Z" fill="#161616"/>
<path d="M88.8963 50.7207C102.896 51.0207 111.096 63.7207 116.996 76.3207C132.496 109.521 126.596 96.6207 132.496 107.121C133.196 108.321 133.296 108.721 132.396 109.821C129.796 113.121 128.396 114.721 123.096 119.221C121.796 120.321 121.596 120.221 120.696 119.221C100.196 96.3207 78.5963 52.0207 88.8963 50.7207Z" fill="#FF4D06"/>
<path d="M121.696 120.521C121.196 120.521 120.796 120.221 120.196 119.621C111.596 110.021 102.196 95.8207 94.9961 81.8207C92.2961 76.5207 83.5961 58.7207 85.9961 52.4207C86.4961 51.1207 87.3961 50.3207 88.6961 50.2207H88.7961C103.496 50.5207 111.796 64.2207 117.296 76.1207C128.296 99.7207 128.496 100.021 129.796 102.021C130.296 102.821 131.096 103.921 132.796 106.921C133.496 108.221 133.696 108.821 132.696 110.221C130.096 113.521 128.696 115.121 123.296 119.721C122.696 120.321 122.196 120.521 121.696 120.521ZM88.8961 51.2207C87.9961 51.3207 87.3961 51.8207 87.0961 52.8207C83.8961 61.5207 102.896 98.6207 121.096 118.921C121.796 119.721 121.796 119.721 122.796 118.821C128.096 114.321 129.596 112.621 132.096 109.421C132.796 108.521 132.796 108.421 132.196 107.321C130.496 104.321 129.796 103.221 129.296 102.421C127.896 100.421 127.796 100.121 116.696 76.4207C111.096 64.9207 103.096 51.6207 88.8961 51.2207Z" fill="#161616"/>
<path d="M99.4962 53.7205C92.7962 48.7205 77.5962 47.1205 74.9962 57.0205C73.7962 61.7205 76.7962 66.1205 76.7962 69.1205C76.7962 69.9205 77.2962 76.8205 77.5962 77.8205C77.5962 79.8205 78.0962 79.7205 79.1962 86.9205C80.1962 93.3205 81.2962 106.921 80.1962 111.821C76.3962 129.621 91.1962 150.121 109.196 153.921C110.296 154.121 110.496 154.021 110.996 152.921C114.896 144.621 111.796 133.321 109.296 125.121C103.996 107.921 114.196 97.5205 107.096 77.1205" fill="#FF4D06"/>
<path d="M109.996 154.521C109.796 154.521 109.496 154.521 109.196 154.421C100.396 152.521 91.9959 146.721 86.1959 138.421C80.2959 130.021 77.9959 120.221 79.7959 111.721C80.7959 107.121 79.7959 93.8206 78.7959 87.0206C78.1959 83.3206 77.7959 81.6206 77.4959 80.5206C77.1959 79.4206 77.0959 78.9206 77.0959 77.9206C76.7959 76.6206 76.2959 70.0206 76.2959 69.1206C76.2959 68.1206 75.8959 66.7206 75.4959 65.3206C74.6959 62.8206 73.7959 59.9206 74.5959 56.8206C75.3959 53.6206 77.6959 51.2206 81.0959 50.1206C87.1959 48.0206 95.5959 50.1206 99.8959 53.3206C100.096 53.5206 100.196 53.8206 99.9959 54.0206C99.7959 54.2206 99.4959 54.3206 99.2959 54.1206C95.1959 51.1206 87.1959 49.0206 81.3959 51.1206C78.2959 52.2206 76.3959 54.2206 75.5959 57.1206C74.8959 59.9206 75.6959 62.6206 76.4959 65.0206C76.9959 66.5206 77.3959 67.9206 77.3959 69.1206C77.3959 70.0206 77.8959 76.8206 78.1959 77.6206C78.1959 77.7206 78.1959 77.7206 78.1959 77.8206C78.1959 78.7206 78.2959 79.1206 78.4959 80.2206C78.7959 81.3206 79.1959 83.1206 79.7959 86.8206C80.6959 92.8206 81.8959 106.721 80.7959 111.921C77.0959 129.021 91.2959 149.521 109.396 153.421C110.196 153.621 110.296 153.521 110.596 152.721C114.196 145.121 111.896 135.021 108.896 125.321C106.396 117.221 107.296 110.621 108.296 103.721C109.396 96.0206 110.496 88.1206 106.696 77.3206C106.596 77.0206 106.696 76.7206 106.996 76.6206C107.296 76.5206 107.596 76.6206 107.696 76.9206C111.496 87.9206 110.396 96.0206 109.296 103.821C108.396 110.621 107.496 117.021 109.896 124.921C112.896 134.921 115.296 145.221 111.596 153.121C111.096 154.121 110.696 154.521 109.996 154.521Z" fill="#161616"/>
<path d="M98.5959 112.021C99.0959 101.721 99.2959 92.0206 99.7959 81.7206C100.096 73.9206 98.3959 60.3206 92.6959 54.2206C87.4959 48.7206 78.9959 49.4206 72.1959 50.4206C66.7959 51.2206 61.9959 51.8206 56.8959 53.9206C41.2959 60.5206 35.4959 75.9206 37.8959 92.4206C39.3959 102.721 40.2959 99.7206 42.6959 111.721C44.2959 119.621 45.1959 133.821 43.2959 142.021C42.7959 144.421 46.1959 147.821 48.1959 149.321C62.4959 159.521 95.1959 153.421 104.896 146.621C105.296 146.321 105.496 145.821 105.196 145.321C103.796 142.121 97.7959 129.021 98.5959 112.021Z" fill="#FF6E63"/>
<path d="M76.3963 147.421C71.0963 147.721 67.8963 147.721 67.9963 147.721C67.3963 147.721 67.2963 148.621 67.8963 148.721C77.7963 150.221 92.8963 148.821 100.996 142.621C101.496 142.221 100.996 141.521 100.496 141.821C100.396 141.721 94.0963 146.121 76.3963 147.421Z" fill="#FFB0AA"/>
<path d="M67.9967 65.9205C75.0967 72.7205 86.7967 73.5205 91.4967 64.5205C91.5967 64.2205 91.4967 63.9205 91.2967 63.8205C90.8967 63.6205 90.5967 64.0205 90.6967 63.9205C84.7967 71.2205 76.4967 70.1205 68.5967 65.1205C68.3967 65.0205 68.0967 65.0205 67.8967 65.3205C67.7967 65.5205 67.7967 65.7205 67.9967 65.9205Z" fill="#FFB0AA"/>
<path d="M70.5959 155.421C61.8959 155.421 53.4959 153.821 47.9959 149.921C46.4959 148.821 42.1959 145.021 42.8959 142.121C44.6959 134.321 43.9959 120.421 42.2959 112.021C41.0959 106.321 40.2959 104.021 39.5959 102.021C38.7959 99.8207 38.1959 98.0207 37.3959 92.6207C34.7959 74.4207 41.9959 59.8207 56.6959 53.6207C61.5959 51.5207 66.1959 50.9207 71.3959 50.1207L72.0959 50.0207C79.9959 48.9207 87.9959 48.6207 92.9959 54.0207C98.8959 60.3207 100.596 74.4207 100.196 81.9207C99.9959 86.7207 99.7959 91.5207 99.6959 96.1207C99.4959 101.321 99.2959 106.821 99.0959 112.321C98.6959 120.021 99.5959 132.021 105.796 145.421C106.096 146.121 105.896 146.921 105.296 147.321C99.0959 151.521 84.3959 155.421 70.5959 155.421ZM80.0959 50.3207C77.5959 50.3207 74.8959 50.6207 72.2959 51.0207L71.5959 51.1207C66.3959 51.8207 61.9959 52.5207 57.1959 54.5207C42.8959 60.5207 35.8959 74.7207 38.4959 92.4207C39.2959 97.7207 39.8959 99.4207 40.5959 101.621C41.2959 103.621 42.0959 105.921 43.2959 111.721C44.9959 120.221 45.7959 134.321 43.8959 142.321C43.4959 144.221 46.2959 147.421 48.5959 149.021C62.4959 159.021 94.7959 153.321 104.696 146.321C104.896 146.221 104.996 145.921 104.896 145.621C98.5959 132.021 97.6959 119.821 98.0959 112.021C98.3959 106.521 98.4959 101.121 98.6959 95.9207C98.8959 91.3207 98.9959 86.6207 99.1959 81.7207C99.4959 74.4207 97.8959 60.7207 92.1959 54.6207C89.1959 51.3207 84.8959 50.3207 80.0959 50.3207Z" fill="#161616"/>
<path d="M81.1955 63.4207C83.4955 63.5207 87.8955 62.9207 87.6955 59.6207C87.6955 59.1207 87.0955 56.6207 86.8955 54.0207C86.6955 52.3207 86.6955 50.6207 86.9955 49.4207C88.9955 41.8207 82.1955 37.7207 75.8955 39.3207C74.0955 39.7207 72.3955 40.6207 70.8955 41.9207C69.4955 43.1207 69.5955 43.9207 66.8955 50.5207C66.3955 51.7207 66.3955 52.4207 66.8955 53.5207C68.4955 57.4207 73.5955 62.3207 79.8955 63.3207C80.2955 63.3207 80.7955 63.4207 81.1955 63.4207Z" fill="#C05E46"/>
<path opacity="0.25" d="M75.3955 44.5208C75.3955 44.5208 74.7955 54.6208 86.8955 54.1208C86.6955 52.4208 86.6955 50.7208 86.9955 49.5208C88.9955 41.9208 82.1955 37.8208 75.8955 39.4208L75.3955 44.5208Z" fill="#161616"/>
<path d="M81.7955 63.9209C81.5955 63.9209 81.3955 63.9209 81.1955 63.9209C80.6955 63.9209 80.2955 63.8209 79.7955 63.8209C73.4955 62.8209 67.9955 57.9209 66.3955 53.7209C65.8955 52.4209 65.8955 51.6209 66.3955 50.3209C67.1955 48.3209 67.7955 46.9209 68.1955 45.8209C69.1955 43.3209 69.4955 42.5209 70.4955 41.5209C71.9955 40.2209 73.7955 39.3209 75.6955 38.8209C79.3955 37.9209 83.1955 38.8209 85.5955 41.2209C87.6955 43.3209 88.2955 46.3209 87.4955 49.6209C87.2955 50.5209 87.1955 52.0209 87.3955 54.0209C87.5955 55.7209 87.8955 57.3209 87.9955 58.4209C88.0955 59.0209 88.1955 59.4209 88.1955 59.6209C88.2955 60.6209 87.9955 61.5209 87.2955 62.2209C85.9955 63.5209 83.6955 63.9209 81.7955 63.9209ZM81.2955 62.9209C83.0955 63.0209 85.4955 62.6209 86.5955 61.5209C87.0955 61.0209 87.2955 60.4209 87.1955 59.8209C87.1955 59.7209 87.0955 59.2209 86.9955 58.7209C86.7955 57.6209 86.4955 55.9209 86.2955 54.2209C86.0955 52.0209 86.0955 50.5209 86.3955 49.4209C87.1955 46.5209 86.5955 43.9209 84.7955 42.0209C82.6955 39.9209 79.1955 39.1209 75.8955 39.9209C74.1955 40.3209 72.4955 41.2209 71.0955 42.4209C70.1955 43.2209 69.9955 43.8209 68.9955 46.2209C68.5955 47.3209 67.9955 48.8209 67.1955 50.7209C66.7955 51.7209 66.7955 52.3209 67.1955 53.4209C68.7955 57.3209 73.8955 61.9209 79.7955 62.8209C80.3955 62.8209 80.7955 62.8209 81.2955 62.9209Z" fill="#161616"/>
<path d="M97.3954 37.0208C96.9954 42.8208 94.4954 47.8208 88.6954 49.0208C84.1954 49.9208 79.6954 48.6208 75.9954 46.4208L70.2954 41.5208C62.0954 31.8208 60.3954 15.8208 74.0954 11.1208C79.5954 9.22077 85.2954 11.3208 89.3954 15.0208C93.8954 19.0208 96.3954 24.8208 97.1954 30.7208C97.1954 30.9208 97.2954 31.1208 97.2954 31.3208C97.4954 33.3208 97.5954 35.2208 97.3954 37.0208Z" fill="#C05E46"/>
<g opacity="0.25">
<path d="M84.3952 36.6207C83.4952 33.0207 76.6952 34.1207 77.1952 38.0207C77.5952 40.8207 81.9952 40.9207 83.6952 39.0207C84.3952 38.2207 84.5952 37.4207 84.3952 36.6207Z" fill="#161616"/>
<path d="M97.3952 37.0206C95.4952 37.5206 93.0952 36.9206 92.7952 34.9206C92.4952 32.5206 95.0952 31.1206 97.2952 31.4206C97.4952 33.3206 97.5952 35.2206 97.3952 37.0206Z" fill="#161616"/>
</g>
<path d="M97.6957 30.7209C96.7957 24.2209 93.9957 18.5209 89.6957 14.6209C84.8957 10.3209 78.9957 8.82086 73.7957 10.6209C68.6957 12.4209 65.2957 15.9209 63.8957 20.7209C62.0957 27.2209 64.3957 35.5209 69.7957 41.9209C69.9957 42.1209 70.2957 42.1209 70.4957 42.0209C70.6957 41.8209 70.6957 41.5209 70.5957 41.3209C65.4957 35.2209 63.1957 27.3209 64.8957 21.1209C66.0957 16.6209 69.2957 13.4209 74.0957 11.7209C78.8957 10.0209 84.3957 11.5209 88.8957 15.5209C92.9957 19.2209 95.6957 24.7209 96.4957 30.9209C98.4957 45.5209 90.7957 48.1209 88.3957 48.6209C84.4957 49.4209 80.0957 48.4209 76.0957 46.0209C75.8957 45.9209 75.4957 45.9209 75.3957 46.2209C75.2957 46.4209 75.2957 46.8209 75.5957 46.9209C78.8957 48.9209 82.3957 49.9209 85.6957 49.9209C86.6957 49.9209 87.6957 49.8209 88.6957 49.6209C96.9957 47.9209 98.7957 38.7209 97.6957 30.7209Z" fill="#161616"/>
<path d="M88.9953 24.521C89.5953 26.121 93.6953 25.221 93.7953 23.621C93.8953 21.321 88.0953 22.021 88.9953 24.521Z" fill="#161616"/>
<path d="M78.0962 27.221C78.7962 28.621 82.9962 27.921 82.8962 26.121C82.7962 23.421 77.0962 25.221 78.0962 27.221Z" fill="#161616"/>
<path d="M86.3952 39.3207C87.1952 40.2207 88.1952 40.5207 89.0952 40.5207C89.5952 40.5207 89.9952 40.4207 90.3952 40.3207C91.5952 39.8207 92.2952 38.8207 92.3952 37.7207C92.3952 37.4207 92.1952 37.2207 91.8952 37.2207C91.5952 37.2207 91.3952 37.4207 91.3952 37.7207C91.3952 38.4207 90.8952 39.0207 90.0952 39.3207C89.2952 39.6207 88.0952 39.6207 87.1952 38.6207C86.9952 38.4207 86.6952 38.4207 86.4952 38.6207C86.1952 38.8207 86.1952 39.1207 86.3952 39.3207Z" fill="#161616"/>
<path d="M86.6953 29.0207C86.4953 29.2207 86.3953 29.5207 86.5953 29.7207C86.5953 29.7207 88.5953 32.2207 89.1953 33.1207C89.3953 33.4207 89.2953 33.5207 89.2953 33.6207C89.1953 33.8207 88.7953 34.3207 87.1953 34.9207C86.8953 35.0207 86.7953 35.3207 86.8953 35.6207C86.9953 35.8207 87.1953 36.0207 87.3953 36.0207C87.4953 36.0207 87.4953 36.0207 87.5953 36.0207C89.1953 35.5207 90.0953 34.9207 90.3953 34.1207C90.4953 33.8207 90.5953 33.3207 90.1953 32.7207C89.5953 31.8207 87.5953 29.3207 87.5953 29.2207C87.2953 28.9207 86.9953 28.9207 86.6953 29.0207Z" fill="#161616"/>
<path d="M72.5959 36.821L70.7959 35.821C70.5959 35.721 70.1959 35.721 70.0959 36.021C69.9959 36.221 69.9959 36.621 70.2959 36.721L72.0959 37.721C72.1959 37.721 72.2959 37.821 72.3959 37.821C72.5959 37.821 72.7959 37.721 72.8959 37.521C72.8959 37.321 72.7959 37.021 72.5959 36.821Z" fill="#161616"/>
<path d="M91.9959 27.321C91.1959 27.421 90.6959 28.221 90.7959 29.021C90.8959 29.821 91.6959 30.321 92.4959 30.221C93.2959 30.121 93.7959 29.321 93.6959 28.521C93.4959 27.721 92.6959 27.121 91.9959 27.321Z" fill="#161616"/>
<path d="M81.6961 29.521C80.8961 29.621 80.3961 30.421 80.4961 31.221C80.5961 32.021 81.3961 32.521 82.1961 32.421C82.9961 32.321 83.4961 31.521 83.3961 30.721C83.1961 29.921 82.3961 29.421 81.6961 29.521Z" fill="#161616"/>
<path d="M71.3958 46.0207C72.1958 44.1207 71.1958 42.0207 70.2958 40.4207C69.2958 38.7207 66.8958 36.6207 68.8958 34.7207C70.2958 33.3207 72.3958 34.5207 73.9958 33.5207C76.4958 31.9207 75.9958 28.0207 75.8958 25.5207C75.6958 19.9207 73.8958 17.7207 75.2958 18.3207C78.0958 19.4207 79.7958 20.7207 85.2958 18.8207C94.3958 15.7207 95.2958 24.6207 96.8958 28.1207C97.1958 28.7207 97.9958 27.7207 98.1958 27.5207C98.9958 26.5207 99.4958 25.2207 99.7958 24.0207C101.196 18.4207 97.4958 17.8207 97.8958 15.0207C98.1958 13.1207 98.5958 11.3207 98.1958 9.42071C97.6958 7.22071 96.3958 5.02071 94.4958 3.82071C85.5958 -1.47929 81.3958 7.02071 72.6958 6.92071C56.2958 6.72071 52.1958 26.3207 56.7958 38.7207C61.4958 51.4207 69.5958 50.4207 71.3958 46.0207Z" fill="#161616"/>
<path d="M73.2953 17.0209C73.5953 17.3209 74.1953 17.0209 73.9953 16.5209C72.7953 13.4209 69.3953 10.6209 66.0953 10.0209C65.6953 9.92088 65.3953 10.5209 65.7953 10.8209C65.8953 10.9209 69.8953 13.7209 73.2953 17.0209Z" fill="#FFB0AA"/>
<path d="M87.5952 6.12085C94.5952 7.62085 94.7952 14.5208 94.5952 13.4208C94.6952 13.9208 95.3952 13.9208 95.4952 13.4208C96.3952 8.92085 92.0952 4.52085 87.6952 5.32085C87.1952 5.32085 87.1952 6.02085 87.5952 6.12085Z" fill="#FFB0AA"/>
<path d="M58.3955 29.9208C58.3955 35.6208 61.2955 41.9208 66.1955 44.8208C66.5955 45.1208 67.0955 44.5208 66.6955 44.1208C59.0955 36.3208 59.9955 29.1208 58.6955 29.5208C58.5955 29.5208 58.3955 29.7208 58.3955 29.9208Z" fill="#FFB0AA"/>
<path d="M39.5955 135.221C38.5955 142.521 36.8955 149.221 38.9955 158.621C40.2955 164.621 74.3955 165.721 70.9955 160.221C67.8955 155.021 66.1955 153.021 65.0955 147.121C63.9955 141.221 64.5955 137.321 66.6955 131.821C76.9955 105.321 61.8955 100.921 63.4955 77.4207C63.7955 73.1207 64.7955 69.0207 65.2955 64.8207C65.6955 61.4207 65.4955 55.7207 64.4955 53.3207C63.7955 51.8207 62.9955 51.9207 61.4955 52.2207C51.6955 54.8207 43.0955 61.8207 37.3955 70.1207C35.4955 72.9207 34.4955 76.5207 34.0955 80.5207C34.0955 80.9207 33.9955 81.2207 33.9955 81.6207C33.0955 94.3207 37.6955 110.921 39.2955 119.521C40.3955 125.321 40.0955 130.021 39.5955 134.521C39.6955 134.721 39.6955 135.021 39.5955 135.221Z" fill="#FF4D06"/>
<path opacity="0.45" d="M65.1955 159.321C63.2955 156.521 61.5955 153.621 60.6955 150.421C59.7955 147.221 59.5955 143.921 59.9955 140.621C60.1955 139.021 60.4955 137.321 60.9955 135.721C61.3955 134.121 61.9955 132.521 62.4955 130.921C63.5955 127.721 64.8955 124.521 65.5955 121.021C66.3955 117.621 66.3955 113.921 65.5955 110.421C64.6955 107.021 63.5955 103.821 62.4955 100.521C61.3955 97.3207 60.3955 94.0207 59.6955 90.8207C58.9955 87.5207 58.6955 84.2207 58.9955 80.8207C58.9955 80.5207 58.7955 80.3207 58.4955 80.2207C58.1955 80.2207 57.9955 80.4207 57.8955 80.6207C57.2955 84.1207 57.4955 87.6207 58.0955 91.0207C58.6955 94.4207 59.6955 97.7207 60.6955 101.021C61.6955 104.321 62.7955 107.521 63.5955 110.821C63.9955 112.421 64.0955 114.021 64.0955 115.721C64.0955 117.321 63.8955 119.021 63.4955 120.621C62.7955 123.821 61.5955 127.021 60.4955 130.221C59.3955 133.421 58.3955 136.921 58.0955 140.421C57.6955 143.921 57.9955 147.521 59.1955 150.921C60.2955 154.321 62.1955 157.321 64.3955 159.921C64.5955 160.121 64.8955 160.121 65.0955 160.021C65.2955 159.821 65.3955 159.521 65.1955 159.321Z" fill="#161616"/>
<path opacity="0.25" d="M39.4954 119.521C40.5954 125.321 40.2954 130.021 39.7954 134.521C46.1954 131.121 49.5954 124.121 51.8954 117.521C54.2954 110.721 55.7954 103.121 55.2954 95.9206C54.9954 91.9206 53.8954 86.3206 50.6954 83.3206C48.4954 81.3206 44.3954 79.6206 41.2954 79.1206C38.8954 78.7206 36.1954 79.0206 34.2954 80.4206C34.2954 80.8206 34.1954 81.1206 34.1954 81.5206C33.1954 94.3206 37.7954 110.921 39.4954 119.521Z" fill="#161616"/>
<path d="M59.7957 164.321C55.3957 164.321 50.6957 163.921 47.0957 163.221C41.8957 162.221 38.9957 160.721 38.5957 158.821C36.7957 150.821 37.7957 144.621 38.6957 138.621C38.8957 137.521 39.0957 136.321 39.1957 135.221L39.2957 134.521C39.7957 130.521 40.1958 125.621 38.9958 119.621C38.6958 117.821 38.1957 115.821 37.6957 113.421C35.6957 104.321 32.8957 91.7209 33.6957 81.5209C33.6957 81.1209 33.7957 80.7209 33.7957 80.4209C34.1957 76.0209 35.3957 72.4209 37.1957 69.8209C43.3957 60.7209 52.2957 54.2209 61.5957 51.7209C63.0957 51.3209 64.3957 51.1209 65.1957 53.1209C66.3957 55.8209 66.3957 61.7209 66.0957 64.9209C65.8957 66.8209 65.5957 68.7209 65.2957 70.5209C64.8957 72.8209 64.4957 75.2209 64.2957 77.5209C63.4957 87.1209 65.5957 93.4209 67.6957 99.5209C70.5957 108.121 73.3957 116.221 67.2957 132.021C65.2957 137.121 64.4957 140.921 65.6957 147.021C66.6957 152.021 67.8957 154.021 70.1957 157.821C70.5957 158.521 70.9958 159.221 71.4958 159.921C71.8958 160.621 71.8958 161.321 71.4958 161.821C70.2957 163.621 65.2957 164.321 59.7957 164.321ZM62.8958 52.5209C62.5958 52.5209 62.1957 52.6209 61.6957 52.7209C52.5957 55.1209 43.9957 61.5209 37.8957 70.3209C36.1957 72.8209 35.0957 76.2209 34.6957 80.4209C34.6957 80.8209 34.5957 81.1209 34.5957 81.5209C33.8957 91.6209 36.5957 104.021 38.5957 113.121C39.0957 115.521 39.5957 117.521 39.8957 119.321C41.0957 125.421 40.6957 130.421 40.1957 134.521L40.0957 135.221C39.8957 136.421 39.7957 137.521 39.5957 138.721C38.6957 144.821 37.7958 150.621 39.4958 158.521C39.7958 159.921 42.5957 161.221 47.1957 162.121C56.3957 163.921 68.9958 163.521 70.5957 161.321C70.6957 161.121 70.7957 160.921 70.5957 160.521C70.0957 159.721 69.6957 159.021 69.2957 158.421C66.9957 154.721 65.5957 152.421 64.5957 147.221C63.3957 140.921 64.1957 136.821 66.2957 131.621C72.2957 116.221 69.5957 108.321 66.6957 99.9209C64.5957 93.7209 62.3957 87.3209 63.0957 77.4209C63.2957 75.0209 63.6957 72.6209 64.0957 70.3209C64.3957 68.5209 64.6958 66.6209 64.8958 64.8209C65.2958 61.2209 65.0957 55.8209 64.0957 53.5209C63.7957 52.7209 63.4958 52.5209 62.8958 52.5209Z" fill="#161616"/>
<path d="M118.796 101.621C119.396 99.421 119.996 97.421 120.496 95.721C122.596 88.021 125.196 80.521 127.696 72.921C128.196 71.421 128.996 68.821 130.196 65.921C127.196 61.121 128.796 53.421 133.096 50.021C136.896 47.021 142.196 49.221 144.296 53.221C146.996 58.321 143.996 67.221 138.996 69.521C138.896 70.821 138.796 72.121 138.696 72.921C138.296 78.921 137.996 84.921 137.596 90.921C137.296 95.621 137.196 100.321 136.796 104.621C136.096 113.221 134.296 120.121 128.496 121.721C124.696 122.821 120.296 120.721 118.496 117.221C116.196 112.921 117.296 106.921 118.796 101.621Z" fill="#C05E46"/>
<path d="M126.396 122.421C123.096 122.421 119.596 120.521 117.996 117.421C115.596 113.021 116.896 106.621 118.196 101.521C118.496 100.321 118.796 99.2209 119.096 98.2209C119.396 97.3209 119.596 96.4209 119.796 95.6209C121.696 88.5209 124.096 81.4209 126.396 74.6209L127.296 71.9209C127.796 70.4209 128.496 68.3209 129.396 66.0209C126.396 61.0209 127.896 53.3209 132.596 49.6209C134.296 48.3209 136.396 47.8209 138.496 48.2209C140.996 48.7209 143.296 50.5209 144.596 52.9209C145.996 55.5209 145.996 59.2209 144.796 62.8209C143.696 66.0209 141.696 68.6209 139.396 69.8209C139.396 70.5209 139.296 71.1209 139.196 71.6209C139.196 72.1209 139.096 72.5209 139.096 72.8209C138.696 78.8209 138.296 84.8209 137.996 90.8209C137.896 92.4209 137.796 94.0209 137.796 95.7209C137.696 98.8209 137.496 101.721 137.296 104.521C136.596 112.621 135.096 120.321 128.696 122.121C127.896 122.321 127.196 122.421 126.396 122.421ZM119.296 101.721C117.996 106.621 116.796 112.721 118.996 116.821C120.796 120.121 124.996 122.021 128.396 121.021C134.196 119.421 135.596 112.021 136.296 104.321C136.496 101.521 136.696 98.6209 136.796 95.5209C136.896 93.9209 136.996 92.3209 136.996 90.6209C137.296 84.7209 137.696 78.6209 138.096 72.6209C138.096 72.2209 138.196 71.8209 138.196 71.3209C138.296 70.7209 138.296 69.9209 138.396 69.2209C138.396 69.0209 138.496 68.8209 138.696 68.8209C140.896 67.8209 142.796 65.4209 143.896 62.3209C145.096 59.0209 144.996 55.6209 143.796 53.2209C142.696 51.1209 140.596 49.5209 138.396 49.1209C137.096 48.8209 135.196 48.8209 133.396 50.3209C129.096 53.7209 127.796 61.1209 130.596 65.5209C130.696 65.6209 130.696 65.8209 130.596 66.0209C129.596 68.4209 128.896 70.5209 128.396 72.1209L127.496 74.8209C125.196 81.6209 122.796 88.7209 120.896 95.8209C120.696 96.6209 120.396 97.5209 120.196 98.4209C119.896 99.5209 119.596 100.621 119.296 101.721Z" fill="#161616"/>
<path d="M144.397 27.8209C143.597 27.7209 142.797 27.9209 142.197 28.3209L136.197 32.2209C131.597 35.2209 128.497 39.8209 127.697 44.9209C126.997 49.2209 127.997 53.3209 130.597 56.5209C132.897 59.4209 136.297 61.3209 139.997 61.8209C140.397 61.9209 140.797 61.9209 141.197 61.9209C146.297 62.2209 151.497 60.2209 155.497 56.4209L160.697 51.4209C160.997 51.1209 161.197 50.8209 161.397 50.5209C161.897 49.4209 161.797 48.1209 160.997 47.1209C160.497 46.5209 159.797 46.0209 158.897 45.9209C157.997 45.8209 157.097 46.0209 156.397 46.6209C156.297 46.7209 156.197 46.7209 156.197 46.8209L150.997 51.8209C148.397 54.3209 144.897 55.7209 141.597 55.5209C141.297 55.5209 141.097 55.5209 140.797 55.4209C138.597 55.1209 136.797 54.1209 135.497 52.4209C135.397 52.3209 135.297 52.2209 135.297 52.1209C135.197 52.0209 135.197 51.9209 135.097 51.8209C134.997 51.7209 134.897 51.5209 134.897 51.4209C134.897 51.3209 134.797 51.3209 134.797 51.2209L134.697 51.0209C134.697 50.9209 134.597 50.9209 134.597 50.8209C134.497 50.6209 134.397 50.4209 134.297 50.1209C134.297 50.0209 134.197 49.9209 134.197 49.8209C134.097 49.5209 134.097 49.3209 133.997 49.1209C133.997 49.0209 133.997 49.0209 133.997 48.9209C133.997 48.8209 133.997 48.6209 133.897 48.5209V48.4209C133.897 48.3209 133.897 48.2209 133.897 48.0209C133.897 47.9209 133.897 47.7209 133.897 47.6209C133.897 47.5209 133.897 47.4209 133.897 47.3209C133.897 46.8209 133.897 46.3209 133.997 45.8209C134.497 42.6209 136.597 39.5209 139.697 37.5209L145.697 33.6209C146.497 33.1209 146.997 32.3209 147.097 31.4209C147.197 30.5209 146.997 29.6209 146.397 28.9209C145.897 28.4209 145.197 27.9209 144.397 27.8209Z" fill="#FF4D06"/>
<path d="M130.697 56.421L135.297 52.721C135.197 52.621 135.097 52.521 135.097 52.421C134.997 52.321 134.997 52.221 134.897 52.121C134.797 52.021 134.697 51.821 134.597 51.721C134.597 51.621 134.497 51.621 134.497 51.521C134.497 51.421 134.397 51.421 134.397 51.321C134.397 51.221 134.297 51.221 134.297 51.121C134.197 50.921 134.097 50.621 133.997 50.421C133.997 50.321 133.897 50.221 133.897 50.121C133.797 49.821 133.797 49.621 133.697 49.321C133.697 49.221 133.697 49.221 133.697 49.121C133.697 49.021 133.697 48.821 133.597 48.721V48.621C133.597 48.521 133.597 48.421 133.597 48.221C133.597 48.121 133.597 47.921 133.597 47.821C133.597 47.721 133.597 47.621 133.597 47.521C133.597 46.921 133.697 46.421 133.697 45.921C134.197 42.621 136.397 39.421 139.497 37.421L141.697 36.021L145.497 33.521C146.997 32.521 147.297 30.521 146.197 29.221C145.197 28.021 143.497 27.721 142.297 28.621L138.397 31.121L136.297 32.521C131.797 35.521 128.697 40.021 127.897 45.021C127.197 49.221 128.197 53.221 130.697 56.421Z" fill="#FFB0AA"/>
<path d="M144.396 27.8209C143.596 27.7209 142.796 27.9209 142.196 28.3209L138.296 30.8209C138.196 30.8209 138.196 30.9209 138.196 31.0209C138.196 31.1209 138.196 31.1209 138.196 31.2209L141.496 36.1209C141.496 36.2209 141.596 36.2209 141.696 36.2209C141.796 36.2209 141.796 36.2209 141.896 36.2209L145.696 33.7209C146.496 33.2209 146.996 32.4209 147.096 31.5209C147.196 30.6209 146.996 29.7209 146.396 29.0209C145.896 28.4209 145.196 27.9209 144.396 27.8209Z" fill="white"/>
<path d="M158.896 46.1207C157.996 46.0207 157.096 46.2207 156.396 46.8207C156.296 46.9207 156.196 46.9207 156.196 47.0207L152.896 50.2207C152.796 50.3207 152.796 50.5207 152.896 50.6207L156.896 54.9207C156.896 54.9207 156.996 55.0207 157.096 55.0207C157.196 55.0207 157.196 55.0207 157.296 54.9207L160.696 51.7207C160.996 51.4207 161.196 51.1207 161.396 50.8207C161.896 49.7207 161.796 48.4207 160.996 47.4207C160.396 46.6207 159.696 46.2207 158.896 46.1207Z" fill="white"/>
<g opacity="0.25">
<path d="M154.896 52.3208L153.096 50.3208L151.196 52.1208C148.496 54.7208 144.996 56.1208 141.596 55.8208C139.796 55.7208 137.196 55.0208 135.296 52.7208C135.196 52.6208 135.096 52.5208 135.096 52.4208C134.996 52.3208 134.996 52.2208 134.896 52.1208C134.896 52.4208 134.896 52.7208 134.896 53.1208C135.396 56.3208 139.296 60.0208 145.996 57.9208C150.496 56.4208 152.796 54.0208 154.896 52.3208Z" fill="#161616"/>
</g>
<g opacity="0.18">
<path d="M160.797 47.421C159.797 46.121 157.897 45.921 156.597 46.921C156.497 47.021 156.497 47.021 156.397 47.121L153.097 50.321L154.897 52.321C155.797 51.621 156.697 51.021 157.697 50.621C159.197 50.121 160.297 50.221 161.097 50.621C161.597 49.621 161.497 48.321 160.797 47.421Z" fill="#161616"/>
</g>
<path opacity="0.5" d="M135.597 35.7209C131.997 37.4209 128.997 42.2209 130.497 46.8209C130.597 47.1209 130.897 47.2209 131.097 47.1209C131.497 47.0209 131.497 46.5209 131.497 46.6209C131.697 44.8209 131.797 43.1209 132.897 41.2209C133.997 38.9209 136.297 36.4209 136.197 36.5209C136.497 36.1209 136.097 35.5209 135.597 35.7209Z" fill="white"/>
<path d="M161.596 51.3208C161.696 51.2208 161.796 51.1208 161.796 50.9208C161.896 50.7208 161.996 50.5208 161.996 50.2208C162.096 49.7208 162.196 49.3208 162.096 48.8208C162.096 48.7208 162.096 48.7208 162.096 48.6208C162.096 48.5208 162.096 48.4208 161.996 48.3208C161.896 48.0208 161.796 47.6208 161.596 47.3208C161.496 47.2208 161.396 47.0208 161.296 46.9208C160.696 46.1208 159.896 45.7208 158.896 45.5208C157.896 45.4208 156.796 45.6208 155.996 46.3208C155.896 46.4208 155.896 46.4208 155.796 46.5208L155.396 46.9208L152.496 49.6208L150.596 51.4208C148.096 53.8208 144.696 55.1208 141.596 54.9208C141.396 54.9208 141.096 54.9208 140.896 54.8208C138.796 54.5208 137.196 53.6208 135.896 52.0208C135.796 51.9208 135.796 51.8208 135.696 51.7208C135.596 51.6208 135.596 51.5208 135.496 51.4208C135.396 51.3208 135.296 51.2208 135.296 51.0208C135.296 50.9208 135.196 50.9208 135.196 50.8208L135.096 50.6208C135.096 50.5208 134.996 50.5208 134.996 50.4208C134.896 50.2208 134.796 50.0208 134.696 49.8208C134.696 49.7208 134.596 49.6208 134.596 49.6208C134.496 49.4208 134.496 49.1208 134.396 48.9208C134.396 48.8208 134.396 48.8208 134.396 48.7208C134.396 48.6208 134.396 48.4208 134.296 48.4208V48.3208C134.296 48.2208 134.296 48.1208 134.296 48.0208C134.296 47.9208 134.296 47.8208 134.296 47.7208V47.6208C134.296 47.5208 134.296 47.5208 134.296 47.4208C134.296 46.9208 134.296 46.4208 134.396 45.9208C134.896 42.8208 136.896 39.8208 139.896 37.9208L142.096 36.5208L145.896 34.0208C146.796 33.4208 147.396 32.5208 147.596 31.5208C147.796 30.5208 147.496 29.4208 146.796 28.6208C146.396 28.0208 145.796 27.6208 145.096 27.4208C144.896 27.3208 144.596 27.3208 144.396 27.2208C144.296 27.2208 144.296 27.2208 144.196 27.2208C143.396 27.1208 142.496 27.3208 141.796 27.8208L135.796 31.7208C131.096 34.8208 127.896 39.5208 126.996 44.8208C126.296 49.2208 127.396 53.5208 129.996 56.9208C132.396 59.9208 135.896 61.9208 139.796 62.4208C140.196 62.5208 140.696 62.5208 141.096 62.5208C141.496 62.5208 141.896 62.5208 142.296 62.5208C147.196 62.5208 152.096 60.5208 155.796 56.9208L157.596 55.1208L157.896 54.8208L160.996 51.8208C161.096 51.7208 161.296 51.5208 161.396 51.3208C161.496 51.4208 161.596 51.3208 161.596 51.3208ZM160.896 50.4208C160.896 50.5208 160.796 50.6208 160.796 50.6208C160.696 50.8208 160.496 51.0208 160.396 51.2208L157.196 54.3208L153.496 50.3208L155.896 48.0208L156.596 47.3208C156.596 47.3208 156.596 47.3208 156.696 47.3208L156.796 47.2208C157.096 47.0208 157.396 46.8208 157.796 46.7208C158.096 46.6208 158.396 46.6208 158.696 46.6208C158.796 46.6208 158.796 46.6208 158.896 46.6208C159.596 46.7208 160.196 47.1208 160.596 47.6208C160.696 47.7208 160.796 47.9208 160.796 48.0208C160.996 48.3208 161.096 48.6208 161.096 49.0208C161.096 49.3208 161.096 49.6208 160.996 49.9208C160.996 50.1208 160.996 50.3208 160.896 50.4208ZM146.596 31.4208C146.496 32.2208 145.996 32.8208 145.396 33.2208L141.796 35.5208L138.796 31.0208L142.496 28.6208C142.696 28.5208 142.896 28.4208 143.096 28.3208H143.196C143.396 28.2208 143.596 28.2208 143.896 28.2208C143.996 28.2208 144.196 28.2208 144.296 28.2208C144.996 28.3208 145.596 28.7208 145.996 29.2208C146.496 29.9208 146.696 30.7208 146.596 31.4208ZM155.096 56.2208C151.196 59.9208 146.196 61.8208 141.196 61.5208C140.796 61.5208 140.396 61.4208 139.996 61.4208C136.296 60.9208 133.096 59.0208 130.896 56.3208C128.396 53.2208 127.396 49.2208 128.096 45.1208C128.896 40.2208 131.896 35.7208 136.396 32.7208L137.896 31.7208L140.896 36.2208L139.396 37.2208C136.196 39.3208 133.996 42.5208 133.496 45.9208C133.396 46.4208 133.396 47.0208 133.396 47.5208C133.396 47.6208 133.396 47.7208 133.396 47.8208C133.396 47.9208 133.396 48.1208 133.396 48.2208C133.396 48.3208 133.396 48.4208 133.396 48.6208V48.7208C133.396 48.8208 133.396 49.0208 133.496 49.1208C133.496 49.2208 133.496 49.3208 133.496 49.3208C133.496 49.6208 133.596 49.8208 133.696 50.1208C133.696 50.2208 133.796 50.3208 133.796 50.4208C133.896 50.6208 133.996 50.9208 134.096 51.1208C134.096 51.2208 134.196 51.2208 134.196 51.3208C134.196 51.3208 134.196 51.3208 134.196 51.4208L134.296 51.6208C134.296 51.7208 134.396 51.7208 134.396 51.8208C134.496 51.9208 134.596 52.1208 134.696 52.2208C134.796 52.3208 134.796 52.4208 134.896 52.5208C134.996 52.6208 135.096 52.7208 135.096 52.8208C136.496 54.6208 138.396 55.6208 140.696 56.0208C140.996 56.0208 141.196 56.1208 141.496 56.1208C144.896 56.3208 148.596 54.9208 151.296 52.3208L152.596 51.0208L156.296 55.0208L155.096 56.2208Z" fill="#161616"/>
<path d="M145.496 53.7206C145.496 53.6206 145.596 53.5206 145.596 53.5206C145.796 52.8206 145.696 52.0206 145.196 51.4206C144.696 50.9206 144.096 50.6206 143.396 50.7206C143.296 50.7206 143.296 50.7206 143.196 50.7206C143.196 50.3206 143.096 49.9206 142.896 49.5206C142.596 49.0206 142.096 48.7206 141.596 48.6206C141.296 48.6206 140.996 48.6206 140.696 48.7206C140.696 48.1206 140.496 47.6206 140.096 47.2206C139.296 46.5206 138.196 46.6206 137.096 47.4206C136.596 47.8206 135.996 48.3206 135.596 49.1206C134.296 51.0206 134.496 52.4206 135.196 53.0206C135.596 53.4206 136.296 53.6206 136.996 53.4206C136.896 53.7206 136.896 54.0206 136.896 54.2206C136.896 54.7206 137.096 55.2206 137.496 55.5206C137.896 55.9206 138.496 56.0206 138.996 55.9206C139.096 55.9206 139.296 55.8206 139.396 55.8206C139.296 56.6206 139.496 57.2206 140.096 57.7206C140.596 58.1206 141.396 58.3206 142.496 57.7206C142.496 57.8206 142.496 57.9206 142.496 57.9206C142.496 58.5206 142.796 58.9206 143.296 59.2206C143.896 59.5206 144.696 59.4206 145.496 58.8206C146.496 58.1206 147.496 56.6206 147.496 55.3206C147.496 54.7206 147.196 54.2206 146.796 53.9206C146.296 53.7206 145.896 53.7206 145.496 53.7206Z" fill="#C05E46"/>
<path d="M134.496 53.1208C134.596 53.2208 134.596 53.3208 134.696 53.3208C135.096 53.7208 135.596 53.9208 136.196 53.9208C136.196 54.0208 136.196 54.1208 136.196 54.2208C136.196 54.9208 136.396 55.5208 136.896 55.9208C137.396 56.3208 137.996 56.5208 138.596 56.4208C138.596 57.0208 138.896 57.6208 139.496 58.1208C139.896 58.4208 140.696 58.8208 141.796 58.4208C141.896 59.0208 142.296 59.4208 142.796 59.7208C143.396 60.0208 144.196 60.0208 144.896 59.6208C145.096 59.5208 145.296 59.4208 145.396 59.3208L145.496 59.2208C146.296 58.6208 147.196 57.5208 147.496 56.3208C147.596 56.0208 147.596 55.7208 147.596 55.4208C147.596 54.6208 147.296 54.0208 146.696 53.6208C146.496 53.4208 146.196 53.3208 145.996 53.3208C146.096 52.5208 145.896 51.7208 145.396 51.1208C144.896 50.5208 144.196 50.2208 143.496 50.2208C143.396 49.9208 143.296 49.6208 143.096 49.3208C142.696 48.7208 142.096 48.3208 141.496 48.2208C141.296 48.2208 141.096 48.2208 140.896 48.2208C140.796 47.7208 140.596 47.2208 140.196 46.9208C139.496 46.3208 138.496 46.1208 137.496 46.6208C137.196 46.7208 136.896 46.9208 136.596 47.1208C136.296 47.3208 135.996 47.6208 135.696 47.9208C135.396 48.2208 135.196 48.5208 134.896 48.9208C134.396 49.7208 134.096 50.3208 133.996 50.9208C133.896 51.9208 134.096 52.6208 134.496 53.1208ZM140.196 57.4208C139.796 57.1208 139.596 56.7208 139.596 56.2208C139.596 55.8208 139.696 55.4208 139.896 55.0208C139.896 55.0208 139.896 55.0208 139.896 54.9208C140.196 54.3208 140.596 53.7208 140.896 53.3208C141.196 53.0208 141.496 52.5208 141.796 52.1208C141.996 51.9208 142.196 51.7208 142.496 51.5208L142.596 51.4208C142.696 51.4208 142.696 51.3208 142.796 51.3208C142.996 51.2208 143.196 51.1208 143.396 51.1208C143.496 51.1208 143.496 51.1208 143.596 51.1208C144.696 51.1208 145.496 52.2208 145.196 53.3208C144.896 53.4208 144.696 53.5208 144.396 53.6208C144.296 53.6208 144.296 53.7208 144.196 53.7208C144.196 53.7208 144.096 53.7208 144.096 53.8208C143.296 54.4208 142.496 55.4208 142.096 56.5208C141.996 56.8208 141.896 57.1208 141.896 57.4208C141.296 57.7208 140.696 57.8208 140.196 57.4208ZM144.996 58.6208C144.396 59.0208 143.896 59.1208 143.396 58.9208C142.996 58.7208 142.896 58.4208 142.796 58.0208C142.796 57.7208 142.796 57.4208 142.896 57.1208C142.896 56.9208 142.996 56.7208 143.096 56.6208C143.396 55.9208 143.996 55.2208 144.596 54.7208L144.696 54.6208C144.696 54.6208 144.696 54.6208 144.796 54.6208C144.896 54.5208 144.996 54.5208 145.096 54.4208C145.396 54.3208 145.696 54.2208 145.896 54.2208C146.096 54.2208 146.296 54.3208 146.396 54.4208C146.896 54.7208 146.996 55.2208 146.896 55.8208C146.796 56.8208 145.996 57.9208 145.196 58.6208C145.196 58.6208 145.196 58.6208 145.096 58.7208C144.996 58.5208 144.996 58.6208 144.996 58.6208ZM138.696 55.5208C137.996 55.6208 137.096 55.2208 137.096 54.2208C137.096 54.1208 137.096 53.9208 137.096 53.7208C137.096 53.5208 137.196 53.3208 137.196 53.1208C137.196 52.9208 137.296 52.8208 137.396 52.6208C137.796 51.7208 138.296 50.8208 138.996 50.1208C139.196 49.9208 139.396 49.8208 139.596 49.6208C139.696 49.5208 139.896 49.4208 139.996 49.4208C140.096 49.4208 140.096 49.3208 140.196 49.3208C140.496 49.2208 140.696 49.1208 140.996 49.1208C141.096 49.1208 141.296 49.1208 141.396 49.1208C142.096 49.2208 142.496 49.7208 142.596 50.4208C142.396 50.5208 142.196 50.6208 142.096 50.7208C141.996 50.7208 141.996 50.8208 141.896 50.8208C141.596 51.0208 141.296 51.3208 140.996 51.6208C140.596 52.0208 140.296 52.4208 140.096 52.8208C139.696 53.3208 139.396 53.9208 139.096 54.5208C138.896 54.8208 138.796 55.2208 138.696 55.5208ZM135.096 52.4208C134.996 52.2208 134.896 51.9208 134.896 51.5208C134.896 50.9208 135.196 50.2208 135.796 49.3208C135.996 49.0208 136.196 48.8208 136.396 48.6208C136.496 48.5208 136.496 48.4208 136.596 48.4208C136.796 48.2208 136.996 48.0208 137.296 47.8208C137.496 47.7208 137.596 47.6208 137.696 47.5208C138.996 46.8208 139.996 47.4208 140.196 48.4208C139.896 48.5208 139.596 48.7208 139.296 48.9208C139.296 48.9208 139.196 48.9208 139.196 49.0208C138.896 49.2208 138.696 49.4208 138.396 49.7208C137.596 50.5208 136.896 51.6208 136.596 52.7208C136.596 52.8208 136.496 53.0208 136.496 53.1208C135.796 53.1208 135.396 52.8208 135.096 52.4208Z" fill="#161616"/>
<path d="M130.097 65.9205C128.697 63.7205 127.997 61.2205 127.897 58.6205C127.697 54.1205 130.297 49.4205 133.697 46.7205C134.697 45.9205 136.797 44.5205 137.497 46.4205C138.097 48.2205 136.697 50.4205 135.497 51.8205C134.197 53.4205 133.997 53.5205 134.297 53.7205C135.997 55.3205 137.397 59.6205 136.697 61.8205" fill="#C05E46"/>
<path d="M130.096 66.4207C129.896 66.4207 129.796 66.3207 129.696 66.2207C128.296 64.0207 127.496 61.4207 127.396 58.6207C127.196 54.2207 129.596 49.3207 133.396 46.3207C134.796 45.2207 135.996 44.8207 136.796 45.0207C137.196 45.1207 137.696 45.4207 137.996 46.2207C138.696 48.2207 137.296 50.5207 135.896 52.1207C135.596 52.4207 135.396 52.7207 135.296 52.9207C135.096 53.1207 134.896 53.3207 134.796 53.5207C136.496 55.3207 137.996 59.6207 137.196 62.0207C137.096 62.3207 136.796 62.4207 136.496 62.3207C136.196 62.2207 136.096 61.9207 136.196 61.6207C136.896 59.5207 135.496 55.5207 133.996 54.0207C133.396 53.4207 133.796 53.0207 134.496 52.1207C134.696 51.9207 134.896 51.6207 135.096 51.3207C136.696 49.3207 137.396 47.5207 136.996 46.4207C136.796 45.9207 136.596 45.8207 136.496 45.8207C135.996 45.7207 135.096 46.1207 133.996 46.9207C130.396 49.7207 128.196 54.3207 128.396 58.3207C128.496 60.9207 129.296 63.3207 130.596 65.4207C130.796 65.6207 130.696 66.0207 130.396 66.1207C130.296 66.4207 130.196 66.4207 130.096 66.4207Z" fill="#161616"/>
<path d="M118.496 117.121C120.396 120.521 124.696 122.721 128.496 121.621C134.296 120.021 135.996 113.121 136.796 104.521C133.096 106.021 126.096 107.521 118.796 101.621C117.296 106.921 116.196 112.921 118.496 117.121Z" fill="#FFBAEA"/>
<path d="M126.396 122.421C123.096 122.421 119.596 120.521 117.996 117.421C115.596 113.021 116.896 106.621 118.196 101.521C118.196 101.321 118.396 101.221 118.496 101.121C118.696 101.021 118.896 101.121 118.996 101.221C126.096 106.921 132.996 105.421 136.496 104.021C136.696 103.921 136.896 104.021 136.996 104.121C137.096 104.221 137.196 104.421 137.196 104.621C136.496 112.721 134.996 120.421 128.596 122.221C127.896 122.321 127.196 122.421 126.396 122.421ZM118.896 116.921C120.696 120.221 124.896 122.121 128.296 121.121C133.896 119.521 135.396 112.621 136.096 105.321C132.396 106.621 125.796 107.721 118.996 102.521C117.796 107.221 116.796 113.021 118.896 116.921Z" fill="#161616"/>
<path d="M37.4967 70.021C33.2967 77.321 31.0967 83.821 28.0967 91.621C18.8967 115.821 17.4967 120.021 16.5967 123.921C19.4967 126.921 22.4967 125.121 28.2967 129.121C29.6967 130.121 29.8967 129.921 30.6967 128.921C39.6967 116.621 48.1967 98.921 53.9967 84.821" fill="#FF4D06"/>
<path d="M29.6963 130.321C29.2963 130.321 28.7963 130.121 28.0963 129.621C25.1963 127.621 23.0963 127.121 21.1963 126.721C19.3963 126.321 17.8963 125.921 16.3963 124.421C16.2963 124.321 16.1963 124.121 16.2963 123.921C17.1963 119.921 18.6963 115.421 27.7963 91.6209C28.1963 90.6209 28.5963 89.5209 28.9963 88.5209C31.4963 81.9209 33.5963 76.2209 37.2963 69.9209C37.3963 69.7209 37.7963 69.6209 37.9963 69.7209C38.1963 69.8209 38.2963 70.2209 38.1963 70.4209C34.5963 76.7209 32.4963 82.3209 29.9963 88.8209C29.5963 89.8209 29.1963 90.8209 28.7963 91.9209C19.9963 115.121 18.2963 119.921 17.3963 123.821C18.5963 125.021 19.8963 125.321 21.4963 125.721C23.3963 126.121 25.6963 126.721 28.7963 128.821C29.7963 129.521 29.7963 129.521 30.4963 128.721C40.3963 114.721 49.1963 95.1209 53.5963 84.6209C53.6963 84.3209 53.9963 84.2209 54.2963 84.3209C54.5963 84.4209 54.6963 84.7209 54.5963 85.0209C50.1963 95.5209 41.3963 115.321 31.1963 129.221C30.5963 129.921 30.1963 130.321 29.6963 130.321Z" fill="#161616"/>
<path d="M85.1959 87.521L83.9959 88.921L69.7958 105.221C69.1958 105.921 69.1959 107.021 69.9959 107.721L78.2958 114.921C78.9958 115.521 80.0958 115.521 80.7958 114.721L85.9959 108.721L96.1959 97.121C96.7959 96.421 96.7959 95.321 95.9959 94.621L87.6959 87.421C86.9958 86.721 85.7959 86.821 85.1959 87.521Z" fill="#FFB0AA"/>
<path d="M89.396 96.1212C88.596 96.6212 87.496 96.5212 86.996 95.7212C86.496 94.9212 86.596 93.8212 87.396 93.3212C88.196 92.8212 89.296 92.9212 89.796 93.7212C90.396 94.5212 90.196 95.6212 89.396 96.1212Z" fill="white"/>
<g opacity="0.25">
<path d="M83.9959 88.9209L69.7958 105.221C69.1958 105.921 69.1959 107.021 69.9959 107.721L78.2958 114.921C78.9958 115.521 80.0958 115.521 80.7958 114.721L85.9959 108.721C85.9959 108.621 85.8959 108.521 85.8959 108.421C84.7959 105.521 81.5959 103.321 81.5959 100.221C81.5959 98.2209 82.7959 96.5209 83.4959 94.7209C84.1959 92.8209 84.2959 90.8209 83.9959 88.9209Z" fill="#161616"/>
</g>
<path d="M96.296 94.1209L87.996 86.9209C87.096 86.1209 85.596 86.2209 84.796 87.1209L69.396 104.821C68.596 105.721 68.696 107.221 69.596 108.021L77.896 115.221C78.296 115.621 78.896 115.821 79.396 115.821C79.996 115.821 80.696 115.521 81.096 115.021L96.496 97.3209C96.896 96.8209 97.096 96.3209 97.096 95.6209C96.996 95.1209 96.796 94.5209 96.296 94.1209ZM95.696 96.7209L80.296 114.421C79.896 114.921 79.096 115.021 78.596 114.521L70.296 107.321C69.796 106.821 69.696 106.121 70.196 105.521L85.596 87.8209C85.796 87.5209 86.196 87.4209 86.496 87.4209C86.796 87.4209 87.096 87.5209 87.296 87.7209L95.596 94.9209C95.796 95.1209 95.996 95.4209 95.996 95.8209C96.096 96.1209 95.896 96.4209 95.696 96.7209Z" fill="#161616"/>
<path d="M88.7962 92.5209C88.1962 92.4209 87.5962 92.5209 87.0962 92.9209C86.5962 93.2209 86.2962 93.8209 86.1962 94.4209C86.0962 95.0209 86.1962 95.6209 86.5962 96.1209C86.8962 96.6209 87.4962 96.9209 88.0962 97.0209C88.1962 97.0209 88.3962 97.0209 88.4962 97.0209C88.9962 97.0209 89.3962 96.9209 89.7962 96.6209C90.2962 96.3209 90.5962 95.7209 90.6962 95.1209C90.7962 94.5209 90.6962 93.9209 90.2962 93.4209C89.8962 92.9209 89.3962 92.6209 88.7962 92.5209ZM89.0962 95.7209C88.7962 95.9209 88.4962 96.0209 88.1962 95.9209C87.8962 95.8209 87.5962 95.7209 87.3962 95.4209C87.1962 95.1209 87.0962 94.8209 87.1962 94.5209C87.2962 94.2209 87.3962 93.9209 87.6962 93.7209C87.8962 93.6209 88.0962 93.5209 88.3962 93.5209C88.4962 93.5209 88.4962 93.5209 88.5962 93.5209C88.8962 93.6209 89.1962 93.7209 89.3962 94.0209C89.5962 94.3209 89.6962 94.6209 89.5962 94.9209C89.4962 95.2209 89.3962 95.5209 89.0962 95.7209Z" fill="#161616"/>
<path d="M17.8962 120.121C20.3962 116.121 26.2962 114.121 31.5962 112.821C33.7962 112.321 35.7962 111.821 37.5962 111.421C45.2962 109.521 53.1962 108.021 60.9962 106.521C62.3962 106.221 64.7962 105.621 67.1962 105.321C67.7962 103.821 68.8962 102.221 70.3962 100.521C73.0962 97.5211 75.8962 95.5211 77.7962 91.9211C78.0962 91.3211 78.5962 90.1211 79.4962 90.1211C81.1962 90.2211 81.0962 92.7211 80.7962 93.9211C80.0962 97.4211 78.4962 99.2211 77.3962 100.821C77.1962 101.121 77.3962 101.621 77.7962 101.621C79.5962 101.521 90.9962 99.1211 93.5962 99.5211C95.0962 99.8211 95.5962 101.321 94.2962 102.121C93.0962 102.821 91.8962 102.921 83.1962 105.021C85.1962 104.521 91.9962 103.621 91.9962 105.821C91.9962 107.521 86.7962 107.921 83.6962 108.521C83.6962 108.521 89.1962 107.921 89.5962 109.821C89.9962 111.421 83.7962 112.521 83.7962 112.521C83.7962 112.521 87.3962 112.021 87.4962 113.221C87.5962 115.121 81.7962 115.921 81.7962 115.921C76.8962 116.621 72.7962 115.921 70.0962 114.321C68.6962 115.021 67.2962 115.621 66.3962 116.021C60.9962 118.621 55.5962 121.221 50.1962 123.921C45.9962 126.021 41.7962 128.221 37.8962 129.921C29.9962 133.521 23.1962 135.321 18.8962 131.121C16.0962 128.221 15.7962 123.421 17.8962 120.121Z" fill="#C05E46"/>
<path d="M25.2962 134.021C22.6962 134.021 20.3962 133.321 18.4962 131.421C15.5962 128.521 15.0962 123.421 17.3962 119.821C20.0962 115.521 26.2962 113.521 31.3962 112.221C32.5962 111.921 33.6962 111.621 34.7962 111.421C35.6962 111.221 36.5962 111.021 37.3962 110.821C44.4962 109.021 51.8962 107.621 58.9962 106.321L60.7962 105.921C61.1962 105.821 61.5962 105.721 62.0962 105.621C63.3962 105.321 64.9962 105.021 66.6962 104.821C67.3962 103.321 68.3962 101.721 69.8962 100.221C70.6962 99.4211 71.4962 98.6211 72.1962 97.8211C74.0962 95.9211 75.8962 94.2211 77.1962 91.6211L77.2962 91.4211C77.6962 90.7211 78.2962 89.5211 79.3962 89.6211C79.9962 89.6211 80.3962 89.9211 80.7962 90.3211C81.6962 91.4211 81.2962 93.4211 81.1962 94.0211C80.5962 97.1211 79.2962 98.9211 78.1962 100.421C77.9962 100.621 77.8962 100.921 77.6962 101.121C78.1962 101.121 79.9962 100.821 81.8962 100.421C86.2962 99.6211 91.6962 98.7211 93.4962 99.0211C94.4962 99.2211 95.1962 99.8211 95.2962 100.621C95.3962 101.321 95.0962 102.121 94.2962 102.521C93.3962 103.021 92.5962 103.221 89.5962 103.921C90.4962 104.021 91.1962 104.221 91.6962 104.621C92.0962 104.921 92.2962 105.321 92.2962 105.821C92.2962 107.121 90.4962 107.821 88.1962 108.221C89.0962 108.521 89.6962 108.921 89.8962 109.721C89.9962 110.021 89.8962 110.321 89.6962 110.621C89.2962 111.221 88.1962 111.721 87.0962 112.121C87.1962 112.221 87.2962 112.221 87.3962 112.321C87.6962 112.521 87.7962 112.821 87.7962 113.121C87.9962 115.421 82.6962 116.221 81.6962 116.321C76.9962 116.921 72.7962 116.421 69.8962 114.821C69.0962 115.221 68.1962 115.621 67.5962 115.921C67.1962 116.121 66.7962 116.321 66.4962 116.421C61.0962 119.021 55.5962 121.621 50.2962 124.221C48.7962 124.921 47.3962 125.621 45.8962 126.421C43.0962 127.821 40.4962 129.121 37.8962 130.321C33.6962 132.321 29.1962 134.021 25.2962 134.021ZM18.2962 120.421C16.2962 123.621 16.6962 128.121 19.1962 130.721C23.4962 134.921 30.5962 132.621 37.5962 129.421C40.0962 128.221 42.7962 126.921 45.4962 125.621C46.8962 124.921 48.3962 124.121 49.8962 123.421C55.2962 120.821 60.6962 118.121 66.0962 115.521C66.3962 115.321 66.7962 115.221 67.2962 115.021C68.0962 114.721 68.8962 114.321 69.7962 113.821C69.9962 113.721 70.0962 113.721 70.2962 113.821C73.0962 115.421 77.0962 115.921 81.6962 115.321C83.8962 115.021 86.9962 114.121 86.8962 113.221C86.8962 113.221 86.8962 113.221 86.8962 113.121C86.4962 112.721 84.7962 112.821 83.7962 112.921C83.4962 112.921 83.2962 112.721 83.1962 112.521C83.1962 112.221 83.2962 112.021 83.5962 111.921C85.4962 111.621 88.3962 110.821 88.8962 110.021C88.9962 109.921 88.8962 109.921 88.8962 109.921C88.6962 108.921 85.5962 108.821 83.5962 109.021C83.2962 109.021 83.0962 108.821 82.9962 108.621C82.9962 108.321 83.0962 108.121 83.3962 108.021C84.0962 107.821 84.9962 107.721 85.8962 107.521C87.8962 107.221 91.2962 106.621 91.2962 105.721C91.2962 105.621 91.2962 105.521 91.0962 105.421C89.8962 104.521 85.1962 105.021 83.1962 105.521C82.8962 105.621 82.5962 105.421 82.5962 105.121C82.4962 104.821 82.6962 104.521 82.9962 104.521C85.9962 103.821 87.9962 103.321 89.5962 102.921C92.4962 102.221 93.2962 102.021 93.9962 101.621C94.3962 101.421 94.5962 101.121 94.4962 100.821C94.3962 100.421 93.9962 100.121 93.4962 100.021C91.8962 99.7211 86.0962 100.721 82.1962 101.421C80.0962 101.821 78.3962 102.121 77.7962 102.121C77.3962 102.121 77.0962 101.921 76.8962 101.621C76.6962 101.321 76.6962 100.821 76.8962 100.521C77.0962 100.321 77.1962 100.021 77.3962 99.8211C78.3962 98.3211 79.5962 96.7211 80.1962 93.8211C80.3962 92.8211 80.3962 91.5211 79.9962 91.0211C79.7962 90.8211 79.6962 90.7211 79.3962 90.7211C78.9962 90.7211 78.4962 91.5211 78.2962 92.0211L78.1962 92.1211C76.7962 94.8211 74.8962 96.6211 72.9962 98.5211C72.2962 99.2211 71.4962 100.021 70.6962 100.821C69.2962 102.421 68.1962 103.921 67.5962 105.421C67.4962 105.621 67.3962 105.721 67.1962 105.721C65.4962 105.921 63.7962 106.321 62.3962 106.621C61.8962 106.721 61.3962 106.821 60.9962 106.921L59.1962 107.321C52.0962 108.721 44.7962 110.021 37.6962 111.821C36.8962 112.021 35.9962 112.221 35.0962 112.421C33.9962 112.621 32.8962 112.921 31.6962 113.221C26.7962 114.521 20.7962 116.421 18.2962 120.421Z" fill="#161616"/>
<path d="M17.8962 120.121C15.7962 123.421 16.0962 128.221 18.8962 131.021C23.1962 135.221 29.9962 133.421 37.8962 129.821C34.7962 127.321 30.0962 121.921 31.5962 112.721C26.2962 114.121 20.3962 116.021 17.8962 120.121Z" fill="#FFBAEA"/>
<path d="M25.2962 134.021C22.6962 134.021 20.3962 133.321 18.4962 131.421C15.5962 128.521 15.0962 123.421 17.3962 119.821C20.0962 115.521 26.2962 113.521 31.3962 112.221C31.5962 112.221 31.7962 112.221 31.8962 112.321C31.9962 112.421 32.0962 112.621 32.0962 112.821C30.5962 121.821 35.2962 127.121 38.1962 129.421C38.2962 129.521 38.3962 129.721 38.3962 129.921C38.3962 130.121 38.2962 130.221 38.0962 130.321C33.6962 132.321 29.1962 134.021 25.2962 134.021ZM18.2962 120.421C16.2962 123.621 16.6962 128.121 19.1962 130.721C23.2962 134.821 29.9962 132.821 36.7962 129.821C33.7962 127.221 29.6962 122.021 30.7962 113.521C26.1962 114.721 20.6962 116.621 18.2962 120.421Z" fill="#161616"/>
<path d="M40.4502 0.57959H4.9502C3.0502 0.57959 1.4502 2.07959 1.4502 4.07959V12.9796C1.4502 14.8796 2.9502 16.4796 4.9502 16.4796H24.3502C25.8502 20.4796 29.1502 25.1796 35.8502 25.9796C35.8502 25.9796 31.6502 22.0796 33.1502 16.4796H40.4502C42.3502 16.4796 43.9502 14.9796 43.9502 12.9796V4.07959C43.9502 2.17959 42.3502 0.57959 40.4502 0.57959Z" fill="white"/>
<path d="M40.4502 0.0795898H4.9502C2.7502 0.0795898 0.950195 1.87959 0.950195 4.07959V12.9796C0.950195 15.1796 2.7502 16.9796 4.9502 16.9796H24.0502C25.6502 20.8796 28.9502 25.5796 35.8502 26.4796C35.8502 26.4796 35.8502 26.4796 35.9502 26.4796C36.1502 26.4796 36.3502 26.3796 36.4502 26.1796C36.5502 25.9796 36.4502 25.7796 36.3502 25.5796C36.3502 25.5796 32.5502 21.9796 33.6502 16.9796H40.5502C42.7502 16.9796 44.5502 15.1796 44.5502 12.9796V4.07959C44.4502 1.87959 42.6502 0.0795898 40.4502 0.0795898ZM43.3502 12.9796C43.3502 14.5796 42.0502 15.8796 40.4502 15.8796H33.1502C32.9502 15.8796 32.7502 16.0796 32.6502 16.2796C31.5502 20.2796 33.3502 23.4796 34.5502 25.0796C28.9502 23.8796 26.1502 19.6796 24.8502 16.1796C24.7502 15.9796 24.5502 15.8796 24.3502 15.8796H4.9502C3.3502 15.8796 2.0502 14.5796 2.0502 12.9796V4.07959C2.0502 2.47959 3.3502 1.1796 4.9502 1.1796H40.4502C42.0502 1.1796 43.3502 2.47959 43.3502 4.07959V12.9796Z" fill="#161616"/>
<path d="M13.2502 6.17969C11.9502 6.17969 10.9502 7.17968 10.9502 8.47968C10.9502 9.77968 11.9502 10.7797 13.2502 10.7797C14.5502 10.7797 15.5502 9.77968 15.5502 8.47968C15.6502 7.27968 14.5502 6.17969 13.2502 6.17969Z" fill="#161616"/>
<path d="M22.6506 6.17969C21.3506 6.17969 20.3506 7.17968 20.3506 8.47968C20.3506 9.77968 21.3506 10.7797 22.6506 10.7797C23.9506 10.7797 24.9506 9.77968 24.9506 8.47968C25.0506 7.27968 23.9506 6.17969 22.6506 6.17969Z" fill="#161616"/>
<path d="M32.05 6.17969C30.75 6.17969 29.75 7.17968 29.75 8.47968C29.75 9.77968 30.75 10.7797 32.05 10.7797C33.35 10.7797 34.35 9.77968 34.35 8.47968C34.35 7.27968 33.35 6.17969 32.05 6.17969Z" fill="#161616"/>
<path d="M117.711 14.3797C117.711 17.3797 119.211 20.0797 121.611 21.6797C123.011 22.5797 124.711 23.1797 126.511 23.1797C128.311 23.1797 130.011 22.6797 131.411 21.6797C133.711 20.0797 135.311 17.4797 135.311 14.3797C135.311 9.57969 131.411 5.67969 126.611 5.67969C121.611 5.67969 117.711 9.57969 117.711 14.3797Z" fill="#E38921"/>
<path d="M128.911 10.4795C128.911 11.8795 127.811 12.9795 126.411 12.9795C125.011 12.9795 123.911 11.8795 123.911 10.4795C123.911 9.07949 125.011 7.97949 126.411 7.97949C127.811 7.97949 128.911 9.07949 128.911 10.4795Z" fill="white"/>
<path d="M121.611 21.6793C123.011 22.5793 124.711 23.1793 126.511 23.1793C128.311 23.1793 130.011 22.6793 131.411 21.6793C131.211 17.2793 129.111 13.7793 126.511 13.7793C123.911 13.7793 121.711 17.2793 121.611 21.6793Z" fill="white"/>
<path d="M126.411 23.6796C124.611 23.6796 122.811 23.1796 121.211 22.0796C118.611 20.3796 117.111 17.4796 117.111 14.3796C117.111 9.27959 121.311 5.07959 126.411 5.07959C131.511 5.07959 135.711 9.27959 135.711 14.3796C135.711 17.4796 134.211 20.3796 131.611 22.0796C130.111 23.0796 128.311 23.6796 126.411 23.6796ZM126.411 6.17959C121.911 6.17959 118.211 9.87959 118.211 14.3796C118.211 17.0796 119.611 19.6796 121.811 21.1796C123.211 22.0796 124.711 22.5796 126.411 22.5796C128.011 22.5796 129.611 22.0796 131.011 21.1796C133.311 19.6796 134.611 17.0796 134.611 14.3796C134.711 9.87959 131.011 6.17959 126.411 6.17959Z" fill="#161616"/>
<path d="M172.55 37.3797C172.55 40.3797 174.05 43.0797 176.45 44.6797C177.85 45.5797 179.55 46.1797 181.35 46.1797C183.15 46.1797 184.85 45.6797 186.25 44.6797C188.55 43.0797 190.15 40.4797 190.15 37.3797C190.15 32.5797 186.25 28.6797 181.45 28.6797C176.45 28.6797 172.55 32.5797 172.55 37.3797Z" fill="#E38921"/>
<path d="M183.75 33.4795C183.75 34.8795 182.65 35.9795 181.25 35.9795C179.85 35.9795 178.75 34.8795 178.75 33.4795C178.75 32.0795 179.85 30.9795 181.25 30.9795C182.65 30.9795 183.75 32.0795 183.75 33.4795Z" fill="white"/>
<path d="M176.45 44.6793C177.85 45.5793 179.55 46.1793 181.35 46.1793C183.15 46.1793 184.85 45.6793 186.25 44.6793C186.05 40.2793 183.95 36.7793 181.35 36.7793C178.75 36.7793 176.55 40.2793 176.45 44.6793Z" fill="white"/>
<path d="M181.25 46.6796C179.45 46.6796 177.65 46.1796 176.05 45.0796C173.45 43.3796 171.95 40.4796 171.95 37.3796C171.95 32.2796 176.15 28.0796 181.25 28.0796C186.35 28.0796 190.55 32.2796 190.55 37.3796C190.55 40.4796 189.05 43.3796 186.45 45.0796C184.95 46.0796 183.15 46.6796 181.25 46.6796ZM181.25 29.1796C176.75 29.1796 173.05 32.8796 173.05 37.3796C173.05 40.0796 174.45 42.6796 176.65 44.1796C178.05 45.0796 179.55 45.5796 181.25 45.5796C182.85 45.5796 184.45 45.0796 185.85 44.1796C188.15 42.6796 189.45 40.0796 189.45 37.3796C189.55 32.8796 185.85 29.1796 181.25 29.1796Z" fill="#161616"/>
<path d="M178.708 76.838C181.794 73.7529 181.794 68.751 178.708 65.6659C175.623 62.5808 170.621 62.5807 167.536 65.6659C164.451 68.751 164.451 73.7529 167.536 76.838C170.621 79.9232 175.623 79.9232 178.708 76.838Z" fill="#FFB0AA"/>
<path d="M172.811 65.4359L171.311 68.4359C171.211 68.5359 171.111 68.6359 171.011 68.6359L167.711 69.1359C167.411 69.1359 167.311 69.5359 167.511 69.7359L169.911 72.0359C170.011 72.1359 170.011 72.2359 170.011 72.3359L169.411 75.6359C169.311 75.9359 169.711 76.1359 169.911 76.0359L172.811 74.5359C172.911 74.4359 173.011 74.4359 173.111 74.5359L176.011 76.0359C176.311 76.1359 176.611 75.9359 176.511 75.6359L175.911 72.3359C175.911 72.2359 175.911 72.1359 176.011 72.0359L178.411 69.7359C178.611 69.5359 178.511 69.1359 178.211 69.1359L174.911 68.6359C174.811 68.6359 174.711 68.5359 174.611 68.4359L173.111 65.4359C173.311 65.1359 172.911 65.1359 172.811 65.4359Z" fill="white"/>
<path d="M173.111 79.7358C168.411 79.7358 164.611 75.9358 164.611 71.2358C164.611 66.5358 168.411 62.7358 173.111 62.7358C177.811 62.7358 181.611 66.5358 181.611 71.2358C181.611 75.9358 177.811 79.7358 173.111 79.7358ZM173.111 63.8358C169.011 63.8358 165.711 67.1358 165.711 71.2358C165.711 75.3358 169.011 78.6358 173.111 78.6358C177.211 78.6358 180.511 75.3358 180.511 71.2358C180.611 67.1358 177.211 63.8358 173.111 63.8358Z" fill="#161616"/>
<path d="M166.708 18.838C169.794 15.7529 169.794 10.751 166.708 7.66586C163.623 4.58075 158.621 4.58074 155.536 7.66586C152.451 10.751 152.451 15.7529 155.536 18.838C158.621 21.9232 163.623 21.9232 166.708 18.838Z" fill="#FFB0AA"/>
<path d="M160.811 7.43594L159.311 10.4359C159.211 10.5359 159.111 10.6359 159.011 10.6359L155.711 11.1359C155.411 11.1359 155.311 11.5359 155.511 11.7359L157.911 14.0359C158.011 14.1359 158.011 14.2359 158.011 14.3359L157.411 17.6359C157.311 17.9359 157.711 18.1359 157.911 18.0359L160.811 16.5359C160.911 16.4359 161.011 16.4359 161.111 16.5359L164.011 18.0359C164.311 18.1359 164.611 17.9359 164.511 17.6359L163.911 14.3359C163.911 14.2359 163.911 14.1359 164.011 14.0359L166.411 11.7359C166.611 11.5359 166.511 11.1359 166.211 11.1359L162.911 10.6359C162.811 10.6359 162.711 10.5359 162.611 10.4359L161.111 7.43594C161.311 7.13594 160.911 7.13594 160.811 7.43594Z" fill="white"/>
<path d="M161.111 21.7358C156.411 21.7358 152.611 17.9358 152.611 13.2358C152.611 8.53584 156.411 4.73584 161.111 4.73584C165.811 4.73584 169.611 8.53584 169.611 13.2358C169.611 17.9358 165.811 21.7358 161.111 21.7358ZM161.111 5.83584C157.011 5.83584 153.711 9.13584 153.711 13.2358C153.711 17.3358 157.011 20.6358 161.111 20.6358C165.211 20.6358 168.511 17.3358 168.511 13.2358C168.611 9.13584 165.211 5.83584 161.111 5.83584Z" fill="#161616"/>
</svg>
