<?xml version="1.0" encoding="UTF-8" standalone="no"?>
<!DOCTYPE svg PUBLIC "-//W3C//DTD SVG 1.1//EN" "http://www.w3.org/Graphics/SVG/1.1/DTD/svg11.dtd">
<svg width="100%" height="100%" viewBox="0 0 2087 1232" version="1.1" xmlns="http://www.w3.org/2000/svg" xmlns:xlink="http://www.w3.org/1999/xlink" xml:space="preserve" xmlns:serif="http://www.serif.com/" style="fill-rule:evenodd;clip-rule:evenodd;stroke-linejoin:round;stroke-miterlimit:2;">
    <g transform="matrix(1,0,0,1,-9137.14,-15880.7)">
        <g transform="matrix(0.761912,0,0,0.449872,3795.24,15880.7)">
            <rect id="Artboard2" x="7011.18" y="0" width="2737.93" height="2737.93" style="fill:none;"/>
            <g id="Artboard21" serif:id="Artboard2">
                <g transform="matrix(2.24845,0,0,1.07299,-10130.7,-43.2742)">
                    <g transform="matrix(56.3896,0,0,200.125,-449824,-268056)">
                        <path d="M8117.05,1349.9C8115.89,1349.9 8115.23,1349.4 8115.23,1348.26L8115.23,1343.17L8113.23,1343.17L8113.23,1347.92C8113.23,1350.86 8114.55,1351.75 8117.05,1351.75C8119.53,1351.75 8120.86,1350.86 8120.86,1347.92L8120.86,1343.17L8118.86,1343.17L8118.86,1348.26C8118.86,1349.4 8118.2,1349.9 8117.05,1349.9Z" style="fill:rgb(50,14,0);fill-rule:nonzero;"/>
                    </g>
                    <g transform="matrix(56.3896,0,0,200.125,-450039,-268056)">
                        <path d="M8132.92,1349.9C8131.77,1349.9 8131.11,1349.4 8131.11,1348.26L8131.11,1343.17L8129.11,1343.17L8129.11,1347.92C8129.11,1350.86 8130.43,1351.75 8132.92,1351.75C8135.4,1351.75 8136.74,1350.86 8136.74,1347.92L8136.74,1343.17L8134.73,1343.17L8134.73,1348.26C8134.73,1349.4 8134.07,1349.9 8132.92,1349.9Z" style="fill:rgb(50,14,0);fill-rule:nonzero;"/>
                    </g>
                    <g transform="matrix(56.3896,0,0,200.125,-449933,-268632)">
                        <path d="M8123.98,1354.63L8125.99,1354.63L8125.99,1344.96L8134.85,1344.96L8134.85,1343.16L8115.15,1343.16L8115.15,1344.96L8123.98,1344.96L8123.98,1354.63Z" style="fill:rgb(255,77,6);fill-rule:nonzero;"/>
                    </g>
                </g>
            </g>
        </g>
    </g>
</svg>
