<svg width="24" height="24" viewBox="0 0 24 24" fill="none" xmlns="http://www.w3.org/2000/svg">
<g clip-path="url(#clip0_81_4306)">
<path fill-rule="evenodd" clip-rule="evenodd" d="M13.8177 8.84932C14.4637 8.51507 15.2856 8.02305 16.1086 7.34894C16.2821 7.72284 16.3011 8.04913 16.2117 8.3126C16.1484 8.49827 16.029 8.65977 15.872 8.78826C15.702 8.92711 15.4897 9.02821 15.255 9.08284C14.8097 9.18693 14.2898 9.12616 13.8177 8.84932ZM13.9297 12.274L14.7848 12.7866C13.0388 13.802 12.5641 15.6876 12.0002 17.5241C11.4365 15.6876 10.9617 13.802 9.21577 12.7866L10.0709 12.274C10.1536 12.2416 10.2243 12.1828 10.2729 12.1061C10.3215 12.0294 10.3454 11.9388 10.3412 11.8471C10.2629 10.1271 10.7104 9.36654 11.3141 8.88898C11.5307 8.71792 11.767 8.63202 12.0002 8.63202C12.2335 8.63202 12.4698 8.71792 12.6864 8.88898C13.2901 9.36654 13.7377 10.1271 13.6593 11.8471C13.6552 11.9388 13.6791 12.0294 13.7277 12.1061C13.7762 12.1828 13.8469 12.2416 13.9297 12.274ZM12.0002 1.04346C12.9887 1.07099 13.9796 1.27011 14.8396 1.65746C15.4352 1.92604 15.9908 2.28081 16.494 2.70505C16.7213 2.89657 16.9084 3.08159 17.1145 3.29458C17.6704 3.31452 18.4828 2.67371 18.8599 2.0741C18.2108 4.2822 15.2488 6.88978 13.1982 7.88756C13.1974 7.88719 13.1968 7.88668 13.1962 7.88624C12.8281 7.59465 12.4142 7.44886 12.0002 7.44886C11.5863 7.44886 11.1724 7.59465 10.8044 7.88624C10.8038 7.88661 10.8032 7.88727 10.8024 7.88756C8.75166 6.88978 5.78972 4.2822 5.14062 2.0741C5.51772 2.67371 6.33013 3.31452 6.88603 3.29458C7.09221 3.08166 7.27932 2.89657 7.50648 2.70505C8.00965 2.28081 8.56533 1.92604 9.16086 1.65746C10.0209 1.27011 11.0119 1.07099 12.0002 1.04346ZM10.1828 8.84932C9.5369 8.51507 8.71485 8.02305 7.89195 7.34894C7.71843 7.72284 7.69942 8.04913 7.78875 8.3126C7.85218 8.49827 7.97157 8.65977 8.12847 8.78826C8.29854 8.92711 8.51085 9.02821 8.74554 9.08284C9.19085 9.18693 9.7107 9.12616 10.1828 8.84932Z" fill="#161616"/>
<path fill-rule="evenodd" clip-rule="evenodd" d="M17.0101 6.52291C17.4632 6.04849 17.8624 5.52338 18.1834 5.05481L18.3464 5.37321C18.8712 6.4628 19.1439 7.548 19.1439 8.76929L19.1428 10.7073L19.1527 11.7119C19.1907 14.1783 19.705 16.6737 20.87 18.9573L18.4325 16.9178L16.7078 19.8219L14.8958 18.052L12.0004 22.9276L9.105 18.0521L7.29315 19.822L5.56844 16.9179L3.13086 18.9574C4.29587 16.6738 4.81016 14.1784 4.84825 11.712L4.8581 10.7074L4.85698 8.76936C4.85698 7.548 5.12961 6.4628 5.6546 5.37328L5.81756 5.05488C6.13856 5.52346 6.53769 6.04849 6.99081 6.52298L6.84932 6.82794C6.57443 7.42025 6.48341 8.08253 6.69755 8.71239C6.83559 9.11807 7.08753 9.46598 7.41233 9.73156C7.72769 9.98948 8.10091 10.1633 8.49167 10.2546C8.74621 10.3141 9.00554 10.3386 9.26318 10.3302C9.20306 10.6838 9.17681 11.0506 9.17512 11.4243L6.87579 12.8023L8.65012 13.8343C8.79194 13.9168 8.92694 14.0114 9.05376 14.1169C10.5166 15.4798 11.3961 19.5116 12.0005 21.4809C12.605 19.5116 13.4844 15.4798 14.9473 14.1169C15.0741 14.0114 15.2091 13.9168 15.3509 13.8343L17.1253 12.8023L14.8259 11.4243C14.8242 11.0506 14.7979 10.6838 14.7378 10.3302C14.9955 10.3386 15.2548 10.3141 15.5093 10.2546C15.9001 10.1633 16.2734 9.98948 16.5887 9.73156C16.9134 9.46598 17.1654 9.11807 17.3034 8.71239C17.5176 8.08253 17.4265 7.42032 17.1517 6.82794L17.0102 6.52298L17.0101 6.52291Z" fill="#161616"/>
</g>
<defs>
<clipPath id="clip0_81_4306">
<rect width="17.7391" height="21.913" fill="white" transform="translate(3.13086 1.04346)"/>
</clipPath>
</defs>
</svg>
