<svg width="120" height="120" viewBox="0 0 120 120" fill="none" xmlns="http://www.w3.org/2000/svg">
<path d="M75.3836 26.4004H20.5436C19.5627 26.4004 18.7676 27.1955 18.7676 28.1764V93.7204C18.7676 94.7012 19.5627 95.4964 20.5436 95.4964H75.3836C76.3644 95.4964 77.1596 94.7012 77.1596 93.7204V28.1764C77.1596 27.1955 76.3644 26.4004 75.3836 26.4004Z" fill="#DE6617"/>
<path d="M75.3837 95.5681H20.5677C19.5357 95.5681 18.7197 94.7281 18.7197 93.7201V28.1761C18.7197 27.1441 19.5597 26.3281 20.5677 26.3281H75.3837C76.4157 26.3281 77.2317 27.1681 77.2317 28.1761V93.6961C77.2317 94.7281 76.3917 95.5441 75.3837 95.5441V95.5681ZM20.5677 26.4721C19.6317 26.4721 18.8637 27.2401 18.8637 28.1761V93.6961C18.8637 94.6321 19.6317 95.4001 20.5677 95.4001H75.3837C76.3197 95.4001 77.0877 94.6321 77.0877 93.6961V28.1761C77.0877 27.2401 76.3197 26.4721 75.3837 26.4721H20.5677Z" fill="#DE6617"/>
<path d="M82.8477 21.457H23.8317C22.8508 21.457 22.0557 22.2522 22.0557 23.233V93.721C22.0557 94.7019 22.8508 95.497 23.8317 95.497H82.8477C83.8285 95.497 84.6237 94.7019 84.6237 93.721V23.233C84.6237 22.2522 83.8285 21.457 82.8477 21.457Z" fill="#FF9C0F"/>
<path d="M82.8478 95.5688H23.8558C22.8238 95.5688 22.0078 94.7288 22.0078 93.7208V23.2328C22.0078 22.2008 22.8478 21.3848 23.8558 21.3848H82.8478C83.8798 21.3848 84.6958 22.2248 84.6958 23.2328V93.6968C84.6958 94.7288 83.8558 95.5448 82.8478 95.5448V95.5688ZM23.8558 21.5288C22.9198 21.5288 22.1518 22.2968 22.1518 23.2328V93.6968C22.1518 94.6328 22.9198 95.4008 23.8558 95.4008H82.8478C83.7838 95.4008 84.5518 94.6328 84.5518 93.6968V23.2328C84.5518 22.2968 83.7838 21.5288 82.8478 21.5288H23.8558Z" fill="#DE6617"/>
<path d="M107.544 65.737C107.544 65.737 107.352 81.073 94.4163 84.001H39.0243C39.0243 84.001 30.3363 84.649 26.8803 77.905C26.0163 76.225 25.4883 74.089 25.4883 71.353V21.601C25.4883 20.305 26.5443 19.249 27.8403 19.249H89.4003C90.6963 19.249 91.7523 20.305 91.7523 21.601V65.737H107.52H107.544Z" fill="#FFFFFE"/>
<path d="M38.424 84.0728C37.584 84.0728 36.024 84.0008 34.248 83.5448C31.848 82.9208 28.632 81.4328 26.832 77.9288C25.896 76.1048 25.416 73.8968 25.416 71.3528V21.6008C25.416 20.2568 26.52 19.1768 27.84 19.1768H89.4C90.744 19.1768 91.824 20.2568 91.824 21.6008V65.6648H107.52H107.568C107.568 65.6648 107.568 65.6888 107.568 65.7128C107.568 65.7608 107.496 69.6008 105.864 73.7768C104.352 77.6168 101.112 82.5368 94.392 84.0488H38.976C38.976 84.0488 38.736 84.0488 38.352 84.0488L38.424 84.0728ZM27.864 19.2968C26.592 19.2968 25.584 20.3288 25.584 21.5768V71.3288C25.584 73.8488 26.04 76.0328 26.976 77.8328C28.752 81.2888 31.944 82.7528 34.296 83.3768C36.864 84.0488 39.024 83.9048 39.048 83.8808H94.44C101.088 82.3928 104.28 77.5208 105.792 73.7048C107.304 69.8888 107.472 66.3128 107.496 65.7608H91.8C91.752 65.7608 91.728 65.7368 91.728 65.6888V21.6008C91.728 20.3288 90.696 19.3208 89.448 19.3208H27.864V19.2968Z" fill="#DE6617"/>
<path d="M107.544 65.7363C107.544 65.7363 107.352 81.0723 94.4159 84.0003H39.0239C39.0239 84.0003 30.3359 84.6483 26.8799 77.9043C28.7039 79.9683 31.9199 81.8883 37.4639 81.8883C49.5119 81.8883 51.8879 65.7363 51.8879 65.7363H107.52H107.544Z" fill="#DE6617"/>
<path d="M38.424 84.0726C37.584 84.0726 36.024 84.0006 34.248 83.5446C31.848 82.9206 28.632 81.4326 26.832 77.9286C26.832 77.9046 26.832 77.8566 26.832 77.8326C26.832 77.8086 26.904 77.8326 26.928 77.8326C29.256 80.4726 32.808 81.7926 37.464 81.7926C42.12 81.7926 47.232 77.4246 49.128 73.7526C51.192 69.7686 51.792 65.7366 51.816 65.7126C51.816 65.6886 51.84 65.6406 51.888 65.6406H107.52H107.568C107.568 65.6406 107.568 65.6646 107.568 65.6886C107.568 65.7366 107.496 69.5766 105.864 73.7526C104.352 77.5926 101.112 82.5126 94.392 84.0246H38.976C38.976 84.0246 38.736 84.0246 38.352 84.0246L38.424 84.0726ZM27.24 78.3606C29.064 81.4806 32.04 82.8246 34.272 83.4006C36.84 84.0726 39 83.9286 39.024 83.9046H94.416C101.064 82.4166 104.256 77.5446 105.768 73.7286C107.28 69.9126 107.448 66.3366 107.472 65.7846H51.96C51.864 66.3126 51.216 70.0806 49.272 73.8246C45.792 80.5206 40.944 81.9366 37.464 81.9366C33.984 81.9366 29.568 80.7366 27.216 78.3366L27.24 78.3606Z" fill="#DE6617"/>
<path d="M31.0791 22.8477H57.9351C58.6071 22.8477 59.1831 23.3757 59.2071 24.0717C59.3271 27.8877 60.0951 39.7677 64.9911 46.9437C65.5671 47.7837 64.9911 48.9357 63.9591 48.9357H37.6551C37.2471 48.9357 36.8631 48.7437 36.6231 48.3837C35.1591 46.2477 29.9991 37.7757 29.8311 24.1437C29.8311 23.4477 30.3831 22.8717 31.1031 22.8717L31.0791 22.8477Z" fill="#F95C18"/>
<path d="M63.9354 48.984H37.6314C37.1994 48.984 36.7914 48.768 36.5274 48.408C34.9674 46.152 29.9034 37.728 29.7354 24.12C29.7354 23.76 29.8794 23.424 30.1194 23.16C30.3834 22.896 30.7194 22.752 31.0794 22.752H57.9353C58.6553 22.752 59.2554 23.328 59.2794 24.048C59.3994 27.576 60.1434 39.672 65.0394 46.872C65.3274 47.304 65.3513 47.808 65.1114 48.264C64.8713 48.696 64.4394 48.96 63.9354 48.96V48.984ZM31.0794 22.92C30.7674 22.92 30.4554 23.04 30.2394 23.28C30.0234 23.52 29.8794 23.808 29.9034 24.12C30.0714 37.68 35.1354 46.08 36.6714 48.312C36.8874 48.624 37.2473 48.816 37.6553 48.816H63.9594C64.4154 48.816 64.7994 48.576 65.0154 48.192C65.2313 47.784 65.2074 47.328 64.9434 46.944C60.0234 39.72 59.2553 27.6 59.1353 24.048C59.1353 23.4 58.5833 22.896 57.9353 22.896H31.0794V22.92Z" fill="#DE6617"/>
<path d="M85.3436 24.9357C83.5916 26.3277 82.7756 26.9277 82.1276 27.4077C81.4796 27.8877 81.5755 27.3117 81.7195 27.0477L83.6876 23.3037C84.0476 24.0237 84.6235 24.5757 85.3195 24.9357H85.3436Z" fill="#DE6617"/>
<path d="M81.9592 27.528C81.8872 27.528 81.7912 27.504 81.7432 27.432C81.6232 27.312 81.5752 27.144 81.6712 27L83.6392 23.256C83.6392 23.256 83.6872 23.208 83.7112 23.208C83.7352 23.208 83.7592 23.208 83.7832 23.256C84.1192 23.952 84.6952 24.504 85.3912 24.84C85.3912 24.84 85.4392 24.864 85.4392 24.888C85.4392 24.912 85.4392 24.936 85.4392 24.96C83.6392 26.376 82.8712 26.952 82.2232 27.432C82.1512 27.48 82.0792 27.504 82.0072 27.504L81.9592 27.528ZM83.6872 23.472L81.7672 27.096C81.7192 27.192 81.7672 27.288 81.8152 27.336C81.8632 27.384 81.9832 27.408 82.0792 27.336C82.7032 26.88 83.4712 26.304 85.1992 24.936C84.5512 24.6 84.0232 24.072 83.6872 23.448V23.472Z" fill="#DE6617"/>
<path d="M94.3918 18.4559C94.3438 19.0799 93.9838 19.5359 93.3838 19.5359C92.0398 19.5839 89.8318 21.4799 89.4238 22.6799C89.3038 22.9919 89.2798 23.3519 89.2558 23.6879C89.1838 24.6239 89.1838 25.5359 88.0318 25.7519C86.4718 26.0399 83.2078 23.9039 83.0158 21.5519C82.8958 20.0399 83.5198 19.7759 84.3598 19.6079C84.8158 19.5119 85.3678 19.4399 85.8478 19.2239C87.2158 18.5999 88.7998 17.3039 88.7278 16.0559C88.6798 15.2399 89.3518 14.2799 90.6238 14.3999H90.6718C91.3198 14.4959 92.1358 14.8559 93.0718 15.6479C94.0798 16.6079 94.4638 17.6639 94.4158 18.4319L94.3918 18.4559Z" fill="#FFFFFE"/>
<path d="M87.7198 25.872C86.9518 25.872 85.8958 25.44 84.9598 24.72C83.7598 23.808 83.0158 22.656 82.9198 21.576C82.7758 19.992 83.4958 19.728 84.3118 19.56C84.4078 19.56 84.5038 19.512 84.5998 19.512C84.9838 19.44 85.3918 19.368 85.7998 19.176C87.2158 18.528 88.7038 17.28 88.6318 16.08C88.6078 15.624 88.7998 15.144 89.1358 14.808C89.3998 14.544 89.8558 14.28 90.6238 14.328H90.6718C91.4158 14.424 92.2558 14.856 93.1198 15.6C94.0558 16.488 94.5598 17.544 94.4878 18.432C94.4398 19.128 94.0078 19.56 93.4078 19.584C92.0878 19.632 89.9038 21.528 89.5198 22.68C89.3998 23.016 89.3758 23.376 89.3518 23.688V23.856C89.2798 24.768 89.2078 25.608 88.0798 25.824C87.9838 25.824 87.8878 25.848 87.7678 25.848L87.7198 25.872ZM90.3598 14.472C89.7838 14.472 89.4238 14.712 89.2078 14.904C88.8958 15.216 88.7278 15.648 88.7518 16.056C88.8238 17.328 87.2878 18.624 85.8478 19.296C85.4398 19.488 85.0318 19.56 84.6238 19.632C84.5278 19.632 84.4318 19.656 84.3358 19.68C83.5438 19.848 82.9198 20.088 83.0638 21.552C83.1598 22.584 83.8798 23.688 85.0318 24.6C86.0638 25.392 87.2638 25.824 87.9838 25.704C89.0158 25.512 89.0638 24.768 89.1358 23.88V23.712C89.1838 23.4 89.2078 23.016 89.3278 22.68C89.7358 21.456 91.9678 19.512 93.3598 19.488C93.9118 19.488 94.2478 19.08 94.2958 18.456C94.3438 17.784 94.0318 16.728 92.9758 15.744C92.1358 15.024 91.3198 14.592 90.5998 14.52H90.5518C90.4798 14.52 90.4078 14.52 90.3358 14.52L90.3598 14.472Z" fill="#DE6617"/>
<path d="M89.2558 23.7118C89.1838 24.6478 89.1838 25.5598 88.0318 25.7758C86.4718 26.0638 83.2078 23.9278 83.0158 21.5758C82.8958 20.0638 83.5198 19.7998 84.3598 19.6318C84.1918 20.6158 84.3598 21.7918 85.4878 22.7998C87.8398 24.8638 89.1838 23.8078 89.2798 23.7358L89.2558 23.7118Z" fill="#E94C09"/>
<path d="M94.3922 18.4558C94.2002 19.7038 91.7282 18.6238 90.4802 17.4238C89.2322 16.1998 88.7762 14.4238 90.6002 14.4238H90.6482C91.2962 14.5198 92.1122 14.8798 93.0482 15.6718C94.0562 16.6318 94.4402 17.6878 94.3922 18.4558Z" fill="#FF9C0F"/>
<path d="M93.6238 19.0801C92.7118 19.0801 91.2718 18.3121 90.4078 17.4721C89.5438 16.6321 89.1118 15.6001 89.3758 14.9521C89.4958 14.6641 89.7838 14.3281 90.5758 14.3281H90.6478C91.3918 14.4241 92.2318 14.8561 93.0958 15.6001C94.0318 16.4881 94.5358 17.5441 94.4638 18.4321C94.4158 18.7201 94.2478 18.9121 94.0078 18.9841C93.9118 19.0081 93.7678 19.0321 93.6478 19.0321L93.6238 19.0801ZM90.5758 14.4721C90.0238 14.4721 89.6398 14.6641 89.5198 15.0001C89.2798 15.5761 89.7118 16.5601 90.5278 17.3521C91.4638 18.2641 93.1678 19.1521 93.9598 18.8881C94.1758 18.8161 94.2958 18.6721 94.3198 18.4321C94.3678 17.7601 94.0558 16.7041 92.9998 15.7201C92.1598 15.0001 91.3438 14.5681 90.6238 14.4961H90.5758V14.4721Z" fill="#DE6617"/>
<path d="M85.3436 24.9357C83.5916 26.3277 82.7756 26.9277 82.1276 27.4077C81.4796 27.8877 81.5755 27.3117 81.7195 27.0477L83.6876 23.3037C84.0476 24.0237 84.6235 24.5757 85.3195 24.9357H85.3436Z" stroke="#DE6617" stroke-width="0.6" stroke-linecap="round" stroke-linejoin="round"/>
<path d="M81.9592 27.528C81.8872 27.528 81.7912 27.504 81.7432 27.432C81.6232 27.312 81.5752 27.144 81.6712 27L83.6392 23.256C83.6392 23.256 83.6872 23.208 83.7112 23.208C83.7352 23.208 83.7592 23.208 83.7832 23.256C84.1192 23.952 84.6952 24.504 85.3912 24.84C85.3912 24.84 85.4392 24.864 85.4392 24.888C85.4392 24.912 85.4392 24.936 85.4392 24.96C83.6392 26.376 82.8712 26.952 82.2232 27.432C82.1512 27.48 82.0792 27.504 82.0072 27.504L81.9592 27.528ZM83.6872 23.472L81.7672 27.096C81.7192 27.192 81.7672 27.288 81.8152 27.336C81.8632 27.384 81.9832 27.408 82.0792 27.336C82.7032 26.88 83.4712 26.304 85.1992 24.936C84.5512 24.6 84.0232 24.072 83.6872 23.448V23.472Z" stroke="#DE6617" stroke-width="0.6" stroke-linecap="round" stroke-linejoin="round"/>
<path d="M94.3918 18.4559C94.3438 19.0799 93.9838 19.5359 93.3838 19.5359C92.0398 19.5839 89.8318 21.4799 89.4238 22.6799C89.3038 22.9919 89.2798 23.3519 89.2558 23.6879C89.1838 24.6239 89.1838 25.5359 88.0318 25.7519C86.4718 26.0399 83.2078 23.9039 83.0158 21.5519C82.8958 20.0399 83.5198 19.7759 84.3598 19.6079C84.8158 19.5119 85.3678 19.4399 85.8478 19.2239C87.2158 18.5999 88.7998 17.3039 88.7278 16.0559C88.6798 15.2399 89.3518 14.2799 90.6238 14.3999H90.6718C91.3198 14.4959 92.1358 14.8559 93.0718 15.6479C94.0798 16.6079 94.4638 17.6639 94.4158 18.4319L94.3918 18.4559Z" stroke="#DE6617" stroke-width="0.6" stroke-linecap="round" stroke-linejoin="round"/>
<path d="M87.7198 25.872C86.9518 25.872 85.8958 25.44 84.9598 24.72C83.7598 23.808 83.0158 22.656 82.9198 21.576C82.7758 19.992 83.4958 19.728 84.3118 19.56C84.4078 19.56 84.5038 19.512 84.5998 19.512C84.9838 19.44 85.3918 19.368 85.7998 19.176C87.2158 18.528 88.7038 17.28 88.6318 16.08C88.6078 15.624 88.7998 15.144 89.1358 14.808C89.3998 14.544 89.8558 14.28 90.6238 14.328H90.6718C91.4158 14.424 92.2558 14.856 93.1198 15.6C94.0558 16.488 94.5598 17.544 94.4878 18.432C94.4398 19.128 94.0078 19.56 93.4078 19.584C92.0878 19.632 89.9038 21.528 89.5198 22.68C89.3998 23.016 89.3758 23.376 89.3518 23.688V23.856C89.2798 24.768 89.2078 25.608 88.0798 25.824C87.9838 25.824 87.8878 25.848 87.7678 25.848L87.7198 25.872ZM90.3598 14.472C89.7838 14.472 89.4238 14.712 89.2078 14.904C88.8958 15.216 88.7278 15.648 88.7518 16.056C88.8238 17.328 87.2878 18.624 85.8478 19.296C85.4398 19.488 85.0318 19.56 84.6238 19.632C84.5278 19.632 84.4318 19.656 84.3358 19.68C83.5438 19.848 82.9198 20.088 83.0638 21.552C83.1598 22.584 83.8798 23.688 85.0318 24.6C86.0638 25.392 87.2638 25.824 87.9838 25.704C89.0158 25.512 89.0638 24.768 89.1358 23.88V23.712C89.1838 23.4 89.2078 23.016 89.3278 22.68C89.7358 21.456 91.9678 19.512 93.3598 19.488C93.9118 19.488 94.2478 19.08 94.2958 18.456C94.3438 17.784 94.0318 16.728 92.9758 15.744C92.1358 15.024 91.3198 14.592 90.5998 14.52H90.5518C90.4798 14.52 90.4078 14.52 90.3358 14.52L90.3598 14.472Z" stroke="#DE6617" stroke-width="0.6" stroke-linecap="round" stroke-linejoin="round"/>
<path d="M89.2558 23.7118C89.1838 24.6478 89.1838 25.5598 88.0318 25.7758C86.4718 26.0638 83.2078 23.9278 83.0158 21.5758C82.8958 20.0638 83.5198 19.7998 84.3598 19.6318C84.1918 20.6158 84.3598 21.7918 85.4878 22.7998C87.8398 24.8638 89.1838 23.8078 89.2798 23.7358L89.2558 23.7118Z" stroke="#DE6617" stroke-width="0.6" stroke-linecap="round" stroke-linejoin="round"/>
<path d="M94.3922 18.4558C94.2002 19.7038 91.7282 18.6238 90.4802 17.4238C89.2322 16.1998 88.7762 14.4238 90.6002 14.4238H90.6482C91.2962 14.5198 92.1122 14.8798 93.0482 15.6718C94.0562 16.6318 94.4402 17.6878 94.3922 18.4558Z" stroke="#DE6617" stroke-width="0.6" stroke-linecap="round" stroke-linejoin="round"/>
<path d="M93.6238 19.0801C92.7118 19.0801 91.2718 18.3121 90.4078 17.4721C89.5438 16.6321 89.1118 15.6001 89.3758 14.9521C89.4958 14.6641 89.7838 14.3281 90.5758 14.3281H90.6478C91.3918 14.4241 92.2318 14.8561 93.0958 15.6001C94.0318 16.4881 94.5358 17.5441 94.4638 18.4321C94.4158 18.7201 94.2478 18.9121 94.0078 18.9841C93.9118 19.0081 93.7678 19.0321 93.6478 19.0321L93.6238 19.0801ZM90.5758 14.4721C90.0238 14.4721 89.6398 14.6641 89.5198 15.0001C89.2798 15.5761 89.7118 16.5601 90.5278 17.3521C91.4638 18.2641 93.1678 19.1521 93.9598 18.8881C94.1758 18.8161 94.2958 18.6721 94.3198 18.4321C94.3678 17.7601 94.0558 16.7041 92.9998 15.7201C92.1598 15.0001 91.3438 14.5681 90.6238 14.4961H90.5758V14.4721Z" stroke="#DE6617" stroke-width="0.6" stroke-linecap="round" stroke-linejoin="round"/>
<path d="M51.7193 28.1528H34.3913C34.3433 28.1528 34.3193 28.1288 34.3193 28.0808C34.3193 28.0328 34.3433 28.0088 34.3913 28.0088H51.7193C51.7673 28.0088 51.7913 28.0328 51.7913 28.0808C51.7913 28.1288 51.7673 28.1528 51.7193 28.1528Z" fill="#DE6617"/>
<path d="M56.0872 34.4399H35.6872C35.6392 34.4399 35.6152 34.4159 35.6152 34.3679C35.6152 34.3199 35.6392 34.2959 35.6872 34.2959H56.0872C56.1352 34.2959 56.1592 34.3199 56.1592 34.3679C56.1592 34.4159 56.1352 34.4399 56.0872 34.4399Z" fill="#DE6617"/>
<path d="M49.9681 40.728H36.9841C36.9361 40.728 36.9121 40.704 36.9121 40.656C36.9121 40.608 36.9361 40.584 36.9841 40.584H49.9681C50.0161 40.584 50.0401 40.608 50.0401 40.656C50.0401 40.704 50.0161 40.728 49.9681 40.728Z" fill="#DE6617"/>
<path d="M40.7034 27.1443C40.0074 27.1443 39.3114 26.9043 38.7594 26.4723C37.4874 25.4643 37.2234 23.6163 38.1354 22.2723L44.3754 13.1523C45.0714 12.1203 46.1754 11.4483 47.4234 11.2563C48.6474 11.0883 49.9194 11.4483 50.8794 12.2403C52.6074 13.6803 52.9914 16.1763 51.7674 18.0723L50.9754 19.2723C50.9754 19.2963 50.9034 19.3203 50.8794 19.2723C50.8554 19.2723 50.8314 19.2003 50.8794 19.1763L51.6714 17.9763C52.8714 16.1523 52.4874 13.7283 50.8074 12.3363C49.8714 11.5683 48.6714 11.2323 47.4714 11.4003C46.2714 11.5683 45.2154 12.2403 44.5194 13.2243L38.2794 22.3443C37.4154 23.6163 37.6794 25.3683 38.8794 26.3283C39.5274 26.8563 40.3434 27.0723 41.1834 26.9523C41.9994 26.8323 42.7194 26.3763 43.1994 25.6803L49.0074 17.1363C49.5354 16.3683 49.3914 15.3363 48.6474 14.7363C48.2634 14.4243 47.7834 14.2803 47.2794 14.3523C46.7754 14.4243 46.3434 14.6643 46.0554 15.0723L40.9434 22.0803C40.9434 22.1043 40.8714 22.1283 40.8474 22.0803C40.8234 22.0803 40.7994 22.0083 40.8474 21.9843L45.9594 14.9763C46.2714 14.5443 46.7514 14.2563 47.2794 14.1843C47.8074 14.1123 48.3354 14.2563 48.7674 14.6163C49.5594 15.2643 49.7274 16.3683 49.1514 17.2083L43.3434 25.7523C42.8634 26.4723 42.0954 26.9523 41.2314 27.0723C41.0874 27.0723 40.9194 27.0963 40.7754 27.0963L40.7034 27.1443Z" fill="#DE6617"/>
<path d="M84.6477 34.4399H65.2077C65.1597 34.4399 65.1357 34.4159 65.1357 34.3679C65.1357 34.3199 65.1597 34.2959 65.2077 34.2959H84.6477C84.6957 34.2959 84.7197 34.3199 84.7197 34.3679C84.7197 34.4159 84.6957 34.4399 84.6477 34.4399Z" fill="#DE6617"/>
<path d="M84.6477 40.728H65.2077C65.1597 40.728 65.1357 40.704 65.1357 40.656C65.1357 40.608 65.1597 40.584 65.2077 40.584H84.6477C84.6957 40.584 84.7197 40.608 84.7197 40.656C84.7197 40.704 84.6957 40.728 84.6477 40.728Z" fill="#DE6617"/>
<path d="M84.6479 47.0161H69.4079C69.3599 47.0161 69.3359 46.9921 69.3359 46.9441C69.3359 46.8961 69.3599 46.8721 69.4079 46.8721H84.6479C84.6959 46.8721 84.7199 46.8961 84.7199 46.9441C84.7199 46.9921 84.6959 47.0161 84.6479 47.0161Z" fill="#DE6617"/>
<path d="M84.6481 53.3286H33.5281C33.4801 53.3286 33.4561 53.3046 33.4561 53.2566C33.4561 53.2086 33.4801 53.1846 33.5281 53.1846H84.6481C84.6961 53.1846 84.7201 53.2086 84.7201 53.2566C84.7201 53.3046 84.6961 53.3286 84.6481 53.3286Z" fill="#DE6617"/>
<path d="M84.6481 59.6167H33.5281C33.4801 59.6167 33.4561 59.5927 33.4561 59.5447C33.4561 59.4967 33.4801 59.4727 33.5281 59.4727H84.6481C84.6961 59.4727 84.7201 59.4967 84.7201 59.5447C84.7201 59.5927 84.6961 59.6167 84.6481 59.6167Z" fill="#DE6617"/>
</svg>
