<svg width="17" height="16" viewBox="0 0 17 16" fill="none" xmlns="http://www.w3.org/2000/svg">
<g clip-path="url(#clip0_124_673)">
<path fill-rule="evenodd" clip-rule="evenodd" d="M12.5508 0.320028C12.6105 0.224124 12.6973 0.148075 12.8003 0.101492C12.9032 0.0549091 13.0176 0.0398837 13.1291 0.0583142L16.0674 0.5486C16.2168 0.573519 16.3502 0.656732 16.4382 0.779953C16.5263 0.903174 16.5619 1.05632 16.5371 1.20574L16.0479 4.14517C16.0293 4.2566 15.978 4.35999 15.9006 4.44228C15.8232 4.52457 15.7231 4.58207 15.613 4.60751C15.503 4.63295 15.3878 4.62519 15.2821 4.58521C15.1765 4.54523 15.085 4.47482 15.0194 4.38289L14.2262 3.27431L10.1416 5.8846C9.96746 5.99606 9.75886 6.04079 9.55429 6.01055C9.34972 5.9803 9.16298 5.87712 9.0285 5.72003L6.75079 3.05717L2.49136 5.24574C2.28919 5.34971 2.054 5.3691 1.83753 5.29966C1.62106 5.23022 1.44104 5.07763 1.33707 4.87546C1.23311 4.67329 1.21372 4.4381 1.28316 4.22163C1.3526 4.00515 1.50519 3.82514 1.70736 3.72117L6.57022 1.22174C6.7419 1.13354 6.93833 1.10587 7.12769 1.1432C7.31706 1.18054 7.48829 1.28069 7.61365 1.42746L9.84679 4.03889L13.2296 1.8766L12.5702 0.954314C12.5047 0.862344 12.4678 0.753009 12.4644 0.640116C12.4609 0.527224 12.491 0.415839 12.5508 0.320028ZM5.06965 5.93146L1.75307 7.8286C1.62205 7.90344 1.51311 8.01154 1.43726 8.14198C1.3614 8.27242 1.32132 8.42057 1.32107 8.57146V15.1429C1.32107 15.616 1.70507 16 2.17822 16H5.06965V5.93146ZM6.49822 16H10.6902V8.21488L8.80565 9.1566L6.92222 5.8606C6.82689 5.69315 6.67793 5.56271 6.49936 5.49031L6.49822 16ZM15.3211 16H12.1188V7.5006L14.9382 6.09031C15.0689 6.02507 15.2141 5.99431 15.36 6.00094C15.5059 6.00757 15.6477 6.05138 15.7719 6.1282C15.8961 6.20502 15.9987 6.31232 16.0698 6.4399C16.1409 6.56748 16.1782 6.71111 16.1782 6.85717V15.1429C16.1782 15.3702 16.0879 15.5882 15.9272 15.749C15.7664 15.9097 15.5484 16 15.3211 16Z" fill="#00C55C"/>
</g>
<defs>
<clipPath id="clip0_124_673">
<rect width="16" height="16" fill="white" transform="translate(0.75)"/>
</clipPath>
</defs>
</svg>
