<svg width="144" height="100" viewBox="0 0 144 100" fill="none" xmlns="http://www.w3.org/2000/svg">
<path d="M90.9258 89.6632L117.969 37.8547H112.428C111.406 37.8547 110.845 36.6669 111.492 35.8771L140.315 0.748563C141.564 -0.773981 144.032 0.191693 143.916 2.1577L141.89 36.5091C141.774 38.4756 140.03 39.9412 138.073 39.7173L134.21 39.2752L107.378 97.3835C106.679 98.8962 105.165 99.8648 103.499 99.8648H94.1995L90.9258 89.6632Z" fill="url(#paint0_linear_93_6653)"/>
<path d="M68.5674 53.3276L87.6591 95.7374C88.79 98.2494 91.2886 99.8647 94.0434 99.8647H103.886C105.191 99.8647 106.395 99.1563 107.028 98.0144L107.378 97.3835C106.321 97.3835 105.352 96.7907 104.872 95.8488L79.4342 46.0079L68.5674 53.3276Z" fill="url(#paint1_linear_93_6653)"/>
<path d="M82.0034 51.0421C80.0889 49.5303 77.2917 49.9748 75.9401 52.0054L47.87 94.1787C45.6218 97.5565 41.8332 99.5859 37.7756 99.5859H33.8258L30.6113 90.3261C30.6113 90.3261 56.7069 50.3133 63.4329 44.2605C63.4329 44.2605 70.131 38.2237 76.7352 42.788C78.48 43.9939 79.8047 45.7149 80.6139 47.6754L82.0034 51.0421Z" fill="url(#paint2_linear_93_6653)"/>
<path d="M0.0810547 65.4218C0.0810547 65.4218 4.77974 59.5486 13.885 58.6349C13.885 58.6349 18.2095 60.1083 26.825 75.5461C35.4405 90.9839 41.1592 98.0238 47.8699 94.1787L47.3143 95.1011C45.4833 98.1411 42.1939 100 38.645 100H34.9335C30.8472 100 27.0112 98.0353 24.625 94.7182C17.9195 85.3968 4.20015 66.8688 0.0810547 65.4218Z" fill="url(#paint3_linear_93_6653)"/>
<path d="M140.663 13.0921C140.65 13.0921 140.637 13.0915 140.624 13.0899C140.438 13.0688 140.303 12.9003 140.324 12.7134L140.515 11.0361C140.536 10.8493 140.705 10.7141 140.891 10.7363C141.078 10.7575 141.212 10.926 141.191 11.1128L141.001 12.7902C140.981 12.9638 140.834 13.0921 140.663 13.0921Z" fill="white"/>
<path d="M116.603 34.2649C116.53 34.2649 116.457 34.2419 116.395 34.1942C116.247 34.0797 116.219 33.8659 116.333 33.7169L140.134 2.79204C140.43 2.40659 140.933 2.26963 141.384 2.45247C141.835 2.63499 142.101 3.08226 142.046 3.56568L141.626 7.27248C141.605 7.45912 141.436 7.59451 141.249 7.57232C141.063 7.55118 140.928 7.38261 140.95 7.19586L141.37 3.48905C141.394 3.27208 141.261 3.13732 141.128 3.08363C140.996 3.03016 140.807 3.03406 140.673 3.20729L116.873 34.1323C116.806 34.2193 116.705 34.2649 116.603 34.2649Z" fill="white"/>
<path d="M62.6097 66.6845C62.5442 66.6845 62.4779 66.6657 62.4196 66.6264C62.2638 66.5212 62.2226 66.3097 62.3278 66.1539L74.6368 47.9087C75.0931 47.2323 75.8528 46.8654 76.6649 46.927C77.4785 46.9887 78.1728 47.466 78.5218 48.2036C78.6022 48.3734 78.5297 48.5763 78.3599 48.6568C78.1904 48.7374 77.987 48.6646 77.9068 48.4948C77.6635 47.9811 77.1801 47.6488 76.6135 47.6058C76.0454 47.5624 75.5188 47.8182 75.201 48.2895L62.892 66.5347C62.8264 66.6321 62.7189 66.6845 62.6097 66.6845Z" fill="white"/>
<path d="M59.4115 71.4258C59.3458 71.4258 59.2797 71.407 59.2213 71.3677C59.0656 71.2625 59.0243 71.0509 59.1296 70.8952L59.9189 69.7253C60.0239 69.5693 60.2357 69.5285 60.3913 69.6334C60.5471 69.7386 60.5883 69.9502 60.483 70.106L59.6939 71.2758C59.6282 71.3733 59.5207 71.4258 59.4115 71.4258Z" fill="white"/>
<defs>
<linearGradient id="paint0_linear_93_6653" x1="150.222" y1="0.595858" x2="87.2276" y2="102.613" gradientUnits="userSpaceOnUse">
<stop offset="1" stop-color="#FF4D06"/>
</linearGradient>
<linearGradient id="paint1_linear_93_6653" x1="107.512" y1="72.0069" x2="56.968" y2="74.9801" gradientUnits="userSpaceOnUse">
<stop offset="1" stop-color="#FF4D06"/>
</linearGradient>
<linearGradient id="paint2_linear_93_6653" x1="85.1977" y1="69.7474" x2="27.0346" y2="70.8624" gradientUnits="userSpaceOnUse">
<stop offset="1" stop-color="#FF4D06"/>
</linearGradient>
<linearGradient id="paint3_linear_93_6653" x1="39.3907" y1="101.098" x2="18.2077" y2="71.8316" gradientUnits="userSpaceOnUse">
<stop offset="1" stop-color="#FF4D06"/>
</linearGradient>
</defs>
</svg>
