<svg width="17" height="16" viewBox="0 0 17 16" fill="none" xmlns="http://www.w3.org/2000/svg">
<path fill-rule="evenodd" clip-rule="evenodd" d="M10.8826 3.15196L12.1026 4.37196C13.8953 6.16529 14.7913 7.06129 14.7913 8.17463C14.7913 9.28863 13.8953 10.1846 12.1026 11.9773C10.3093 13.7706 9.41325 14.6666 8.29925 14.6666C7.18592 14.6666 6.28925 13.7706 4.49659 11.978L3.27659 10.758C2.24659 9.72729 1.73125 9.21263 1.53992 8.54396C1.34792 7.87529 1.51192 7.16529 1.83992 5.74596L2.02859 4.92729C2.30392 3.73263 2.44192 3.13529 2.85059 2.72596C3.25925 2.31663 3.85725 2.17929 5.05192 1.90396L5.87059 1.71463C7.29059 1.38729 7.99992 1.22329 8.66859 1.41463C9.33725 1.60663 9.85258 2.12196 10.8826 3.15196ZM7.55525 9.55196C7.10659 9.10396 7.10992 8.45996 7.37859 7.94996C7.31207 7.85389 7.28131 7.73756 7.29163 7.62117C7.30196 7.50477 7.35272 7.39568 7.43511 7.31281C7.5175 7.22995 7.6263 7.17856 7.74263 7.16757C7.85896 7.15657 7.97547 7.18667 8.07192 7.25263C8.29859 7.13263 8.54725 7.06863 8.79525 7.07129C8.92786 7.07253 9.05455 7.1264 9.14744 7.22104C9.24033 7.31568 9.29182 7.44335 9.29059 7.57596C9.28935 7.70857 9.23548 7.83525 9.14084 7.92815C9.0462 8.02104 8.91853 8.07253 8.78592 8.07129C8.63155 8.077 8.48566 8.14335 8.37992 8.25596C8.12192 8.51396 8.18925 8.77263 8.26192 8.84529C8.33525 8.91796 8.59325 8.98529 8.85125 8.72729C9.37392 8.20463 10.2766 8.03129 10.8546 8.60929C11.3033 9.05796 11.2999 9.70196 11.0313 10.212C11.0973 10.3081 11.1278 10.4242 11.1173 10.5404C11.1067 10.6565 11.056 10.7654 10.9737 10.848C10.8914 10.9307 10.7828 10.982 10.6667 10.9931C10.5506 11.0041 10.4343 10.9743 10.3379 10.9086C10.0388 11.0728 9.69173 11.1275 9.35659 11.0633C9.22663 11.0366 9.1126 10.9594 9.03959 10.8486C8.96657 10.7378 8.94055 10.6026 8.96725 10.4726C8.99395 10.3427 9.07118 10.2286 9.18195 10.1556C9.29272 10.0826 9.42796 10.0566 9.55792 10.0833C9.67592 10.108 9.86659 10.0693 10.0299 9.90596C10.2879 9.64729 10.2206 9.38929 10.1479 9.31663C10.0746 9.24396 9.81659 9.17663 9.55859 9.43463C9.03592 9.95729 8.13325 10.1306 7.55525 9.55196ZM6.80459 6.86196C6.92838 6.73812 7.02657 6.59112 7.09355 6.42933C7.16053 6.26755 7.19498 6.09416 7.19495 5.91906C7.19492 5.74396 7.1604 5.57058 7.09337 5.40882C7.02633 5.24706 6.92809 5.10009 6.80425 4.97629C6.68042 4.8525 6.53341 4.75431 6.37163 4.68733C6.20984 4.62035 6.03645 4.58589 5.86135 4.58593C5.68625 4.58596 5.51287 4.62048 5.35111 4.68751C5.18935 4.75455 5.04238 4.85279 4.91859 4.97663C4.66857 5.22673 4.52816 5.5659 4.52822 5.91953C4.52828 6.27316 4.66882 6.61228 4.91892 6.86229C5.16902 7.1123 5.50819 7.25272 5.86182 7.25266C6.21545 7.2526 6.55457 7.11206 6.80459 6.86196Z" fill="#8E00C5"/>
</svg>
