<svg width="17" height="16" viewBox="0 0 17 16" fill="none" xmlns="http://www.w3.org/2000/svg">
<path d="M8.74467 1.44535L12.7447 4.11202C12.836 4.17292 12.9108 4.25541 12.9625 4.35216C13.0143 4.44892 13.0414 4.55696 13.0413 4.66668V12.6667C13.0413 13.1971 12.8306 13.7058 12.4556 14.0809C12.0805 14.456 11.5718 14.6667 11.0413 14.6667H5.70801C5.17757 14.6667 4.66887 14.456 4.29379 14.0809C3.91872 13.7058 3.70801 13.1971 3.70801 12.6667V4.66668C3.70799 4.55696 3.73506 4.44892 3.78681 4.35216C3.83856 4.25541 3.9134 4.17292 4.00467 4.11202L8.00467 1.44535C8.11423 1.37226 8.24298 1.33325 8.37467 1.33325C8.50637 1.33325 8.63512 1.37226 8.74467 1.44535ZM8.67267 10.0707C8.58014 10.0244 8.47812 10.0004 8.37467 10.0004C8.27123 10.0004 8.16921 10.0244 8.07667 10.0707L6.74334 10.7374C6.58533 10.8165 6.46519 10.955 6.40931 11.1227C6.35343 11.2903 6.36639 11.4733 6.44534 11.6314L6.48401 11.6994C6.57369 11.8358 6.71031 11.9345 6.86796 11.9769C7.02561 12.0193 7.19334 12.0024 7.33934 11.9294L8.37467 11.412L9.41001 11.9294C9.56728 12.002 9.74666 12.0106 9.91015 11.9533C10.0736 11.8959 10.2084 11.7772 10.2859 11.6223C10.3633 11.4673 10.3775 11.2883 10.3252 11.1231C10.273 10.9579 10.1585 10.8196 10.006 10.7374L8.67267 10.0707ZM8.67267 7.40402C8.58014 7.35778 8.47812 7.33371 8.37467 7.33371C8.27123 7.33371 8.16921 7.35778 8.07667 7.40402L6.74334 8.07068C6.58533 8.14978 6.46519 8.28838 6.40931 8.45601C6.35343 8.62364 6.36639 8.8066 6.44534 8.96468L6.48401 9.03268C6.57369 9.1691 6.71031 9.26787 6.86796 9.31026C7.02561 9.35265 7.19334 9.33572 7.33934 9.26268L8.37467 8.74535L9.41001 9.26268C9.56728 9.33534 9.74666 9.34391 9.91015 9.28659C10.0736 9.22928 10.2084 9.11057 10.2859 8.95561C10.3633 8.80066 10.3775 8.62163 10.3252 8.45645C10.273 8.29127 10.1585 8.15291 10.006 8.07068L8.67267 7.40402ZM8.67267 4.73735C8.58014 4.69111 8.47812 4.66704 8.37467 4.66704C8.27123 4.66704 8.16921 4.69111 8.07667 4.73735L6.74334 5.40402C6.58533 5.48312 6.46519 5.62171 6.40931 5.78934C6.35343 5.95697 6.36639 6.13993 6.44534 6.29802L6.48401 6.36602C6.57369 6.50243 6.71031 6.6012 6.86796 6.64359C7.02561 6.68598 7.19334 6.66906 7.33934 6.59602L8.37467 6.07868L9.41001 6.59602C9.56728 6.66867 9.74666 6.67724 9.91015 6.61993C10.0736 6.56261 10.2084 6.4439 10.2859 6.28895C10.3633 6.13399 10.3775 5.95497 10.3252 5.78978C10.273 5.6246 10.1585 5.48625 10.006 5.40402L8.67267 4.73735Z" fill="#FF6E63"/>
</svg>
