<svg width="88" height="100" viewBox="0 0 88 100" fill="none" xmlns="http://www.w3.org/2000/svg">
<path d="M53.0637 3.9303H34.9375V14.4103H53.0637V3.9303Z" fill="#3E479B"/>
<path d="M54.6099 7.20483H33.3906C32.6361 7.20483 32.0244 6.59311 32.0244 5.83862V1.36621C32.0244 0.611726 32.6361 0 33.3906 0H54.6099C55.3644 0 55.9761 0.611726 55.9761 1.36621V5.83862C55.9768 6.59311 55.3651 7.20483 54.6099 7.20483Z" fill="#4C65BA"/>
<path d="M44.0003 100C67.9543 100 87.3728 80.3518 87.3728 56.1145C87.3728 31.8772 67.9543 12.2289 44.0003 12.2289C20.0464 12.2289 0.62793 31.8772 0.62793 56.1145C0.62793 80.3518 20.0464 100 44.0003 100Z" fill="#FF4D06"/>
<path d="M43.9997 89.8476C62.4121 89.8476 77.3384 74.7448 77.3384 56.1145C77.3384 37.4842 62.4121 22.3814 43.9997 22.3814C25.5873 22.3814 10.6611 37.4842 10.6611 56.1145C10.6611 74.7448 25.5873 89.8476 43.9997 89.8476Z" fill="white"/>
<path d="M44.9959 53.6896H43.0035C42.6607 53.6896 42.3828 53.4117 42.3828 53.0689V31.4055C42.3828 31.0627 42.6607 30.7848 43.0035 30.7848H44.9959C45.3387 30.7848 45.6166 31.0627 45.6166 31.4055V53.0689C45.6166 53.4117 45.3387 53.6896 44.9959 53.6896Z" fill="#FF4D06"/>
<path d="M44.0007 61.0227C46.6795 61.0227 48.8511 58.8252 48.8511 56.1145C48.8511 53.4037 46.6795 51.2062 44.0007 51.2062C41.3219 51.2062 39.1504 53.4037 39.1504 56.1145C39.1504 58.8252 41.3219 61.0227 44.0007 61.0227Z" fill="#3E479B"/>
</svg>
